<?xml version="1.0" encoding="UTF-8" standalone="no"?>
<!DOCTYPE svg PUBLIC "-//W3C//DTD SVG 1.1//EN" "http://www.w3.org/Graphics/SVG/1.1/DTD/svg11.dtd">
<svg width="100%" height="100%" viewBox="0 0 4932 373" version="1.1" xmlns="http://www.w3.org/2000/svg" xmlns:xlink="http://www.w3.org/1999/xlink" xml:space="preserve" xmlns:serif="http://www.serif.com/" style="fill-rule:evenodd;clip-rule:evenodd;stroke-linejoin:round;stroke-miterlimit:2;">
    <g transform="matrix(1,0,0,1,0,-1909.496678)">
        <g transform="matrix(1,0,0,1,-0,1686.442344)">
            <path fill="currentColor" d="M1480.795,590.906C1474.238,590.975 1380.412,591.806 1378.792,591.214C1367.743,587.179 1386.105,581.496 1387.162,581.168C1421.502,570.538 1415.749,545.713 1415.749,477.313C1415.749,272.583 1416.288,272.212 1412.135,263.241C1399.569,236.096 1366.141,243.934 1378.232,234.208C1381.374,231.681 1470.709,231.22 1488.42,232.757C1492.073,233.074 1516.313,232.584 1517.763,236.484C1519.131,240.165 1492.074,244.994 1486.76,254.546C1480.369,266.036 1479.415,296.176 1479.414,305.424C1479.407,376.798 1479.642,449.152 1479.191,535.909C1479.005,571.867 1500.193,574.594 1521.714,583.32C1531.877,587.44 1517.714,591.25 1503.167,590.902C1502.534,590.887 1482.069,590.913 1480.795,590.906ZM1481.108,590.903C1481.172,590.902 1481.171,590.902 1481.108,590.903ZM2844.44,585.813C2837.883,585.882 2744.057,586.713 2742.437,586.121C2731.388,582.086 2749.749,576.403 2750.807,576.075C2785.147,565.445 2779.394,540.62 2779.394,472.22C2779.394,267.49 2779.933,267.119 2775.78,258.148C2763.214,231.003 2729.786,238.841 2741.877,229.115C2745.019,226.588 2834.354,226.127 2852.065,227.664C2855.718,227.981 2879.958,227.491 2881.408,231.391C2882.776,235.072 2855.718,239.901 2850.405,249.453C2844.013,260.943 2843.06,291.083 2843.059,300.331C2843.051,371.705 2843.286,444.059 2842.836,530.816C2842.65,566.774 2863.838,569.501 2885.359,578.227C2895.522,582.347 2881.359,586.157 2866.812,585.809C2866.178,585.794 2845.714,585.82 2844.44,585.813ZM2844.753,585.81C2844.817,585.809 2844.816,585.809 2844.753,585.81ZM3596.543,584.338C3578.495,583.21 3593.805,576.168 3601.948,573.306C3609.395,570.689 3621.862,551.576 3630.636,531.802C3663.507,457.727 3665.483,458.591 3697.627,384.146C3704.522,368.177 3768.268,230.577 3769.436,229.337C3781.182,216.874 3791.283,253.301 3797.101,267.482C3908.33,538.595 3910.281,566.25 3942.046,575.681C3964.729,582.416 3942.879,585.911 3941.969,585.889C3812.5,582.754 3812.347,587.949 3801.446,585.485C3785.082,581.787 3814.161,574.658 3819.612,571.223C3862.379,544.275 3835.394,501.81 3832.045,494.059C3818.061,461.693 3819.509,456.555 3802.626,456.813C3795.992,456.914 3682.643,456.624 3680.361,457.113C3669.876,459.364 3643.259,531.741 3642.94,532.96C3630.298,581.452 3691.022,575.094 3695.094,578.83C3706.696,589.474 3661.524,583.242 3606.607,584.461C3604.548,584.507 3598.701,584.473 3596.543,584.338ZM3751.778,300.756C3750.897,302.295 3748.624,302.936 3747.743,304.475C3745.665,308.107 3744.702,312.172 3743.065,315.981C3701.033,413.825 3698.428,412.849 3695.205,421.491C3692.659,428.317 3698.682,429.13 3795.283,427.743C3809.178,427.544 3795.946,404.873 3793.424,398.721C3756.817,309.434 3758.612,308.918 3754.621,301.47C3754.194,300.674 3752.204,301.552 3751.778,300.756ZM8.433,586.983C-9.615,585.854 5.696,578.813 13.838,575.951C21.285,573.333 33.752,554.22 42.527,534.447C75.397,460.371 77.373,461.236 109.517,386.79C116.412,370.822 180.158,233.221 181.326,231.981C193.072,219.518 203.173,255.945 208.991,270.126C255.765,384.133 283.214,455.089 301.683,499.742C327.133,561.276 335.529,572.861 353.936,578.326C376.619,585.06 354.769,588.556 353.859,588.534C224.39,585.398 224.237,590.593 213.336,588.13C196.973,584.432 226.051,577.302 231.502,573.867C274.269,546.919 247.284,504.454 243.935,496.703C229.951,464.337 231.399,459.2 214.516,459.457C207.882,459.559 94.533,459.268 92.251,459.758C81.766,462.008 55.149,534.385 54.831,535.605C42.188,584.097 102.912,577.738 106.984,581.474C118.586,592.118 73.414,585.886 18.497,587.105C16.438,587.151 10.591,587.118 8.433,586.983ZM163.668,303.401C162.787,304.939 160.514,305.58 159.633,307.119C157.555,310.751 156.592,314.816 154.955,318.626C112.923,416.469 110.318,415.494 107.095,424.136C104.549,430.962 110.572,431.775 207.173,430.388C221.068,430.188 207.836,407.517 205.314,401.365C168.708,312.079 170.502,311.562 166.511,304.114C166.085,303.319 164.094,304.196 163.668,303.401ZM1906.115,589.431C1888.066,588.303 1903.377,581.261 1911.519,578.399C1918.967,575.782 1931.433,556.669 1940.208,536.895C1973.078,462.82 1975.054,463.685 2007.198,389.239C2014.093,373.27 2077.839,235.67 2079.008,234.43C2090.753,221.967 2100.854,258.394 2106.672,272.575C2153.446,386.582 2180.896,457.538 2199.364,502.191C2224.814,563.724 2233.21,575.309 2251.617,580.774C2274.3,587.509 2252.451,591.004 2251.54,590.982C2122.071,587.847 2121.918,593.042 2111.017,590.578C2094.654,586.88 2123.732,579.751 2129.184,576.316C2171.95,549.368 2144.965,506.903 2141.616,499.152C2127.632,466.786 2129.08,461.648 2112.197,461.906C2105.563,462.007 1992.214,461.717 1989.932,462.207C1979.447,464.457 1952.83,536.834 1952.512,538.054C1939.869,586.545 2000.593,580.187 2004.665,583.923C2016.267,594.567 1971.095,588.335 1916.178,589.554C1914.119,589.6 1908.273,589.566 1906.115,589.431ZM2061.349,305.849C2060.468,307.388 2058.195,308.029 2057.314,309.568C2055.236,313.2 2054.273,317.265 2052.636,321.074C2010.604,418.918 2007.999,417.942 2004.776,426.584C2002.23,433.41 2008.253,434.223 2104.854,432.836C2118.749,432.637 2105.517,409.966 2102.995,403.814C2066.389,314.528 2068.183,314.011 2064.192,306.563C2063.766,305.767 2061.775,306.645 2061.349,305.849ZM4308.163,580.669C4296.721,586.904 4290.862,587.966 4283.444,589.295C4145.009,614.085 4145.598,408.187 4087.357,398.787C4056.414,393.793 4054.92,400.047 4054.363,402.379C4052.644,409.579 4054.114,524.356 4054.25,534.962C4054.808,578.53 4107.068,569.993 4091.458,581.358C4091.33,581.451 3956.443,583.012 3954.31,580.491C3945.644,570.247 3984.919,576.259 3991.7,542.779C3995.061,526.187 3992.723,294.789 3992.506,273.225C3992.007,223.876 3940.439,235.913 3954.854,224.932C3958.791,221.934 4100.975,223.393 4113.681,223.523C4261.483,225.039 4270.748,354.2 4208.91,385.505C4190.809,394.669 4149.736,395.645 4144.505,395.77C4141.939,399.514 4138.935,400.458 4143.298,402.753C4183.303,423.801 4210.413,492.388 4229.025,534.13C4248.838,578.568 4273.942,584.119 4299.485,573.334C4324.442,562.796 4315.003,576.942 4308.163,580.669ZM4126.539,389.239C4139.925,386.036 4163.175,385.496 4175.116,347.565C4181.13,328.462 4183.305,291.654 4164.359,262.361C4137.988,221.588 4054.916,218.913 4054.327,273.246C4053.131,383.746 4051.416,389.293 4061.772,389.161C4094.368,388.746 4094.237,392.298 4126.539,389.239ZM514.516,590.448C486.597,590.787 386.352,591.643 384.516,589.473C375.85,579.229 415.125,585.241 421.906,551.76C425.267,535.169 422.929,303.77 422.712,282.207C422.213,232.858 370.645,244.894 385.06,233.914C388.997,230.915 531.195,231.953 543.887,232.505C748.302,241.391 736.268,565.255 592.115,585.844C576.305,588.102 543.529,589.549 527.795,590.127C528.563,590.176 525.618,590.255 522.105,590.325L521.664,590.339L521.679,590.333C519.131,590.383 516.356,590.426 514.516,590.448ZM515.081,580.743L515.086,580.744C517.098,581.265 520.61,581.207 522.767,581.189C525.188,581.168 527.749,580.647 528.364,580.535C543.684,577.74 568.536,573.773 588.202,558.014C626.715,527.152 635.078,503.53 639.733,476.227C658.068,368.694 627.78,305.152 594.565,271.343C559.82,235.975 485.122,227.895 484.533,282.227C483.9,340.728 484.351,535.702 484.456,543.943C484.774,568.713 502.642,577.001 515.081,580.743ZM2545.631,590.448C2517.713,590.787 2417.468,591.643 2415.631,589.473C2406.965,579.229 2446.24,585.241 2453.022,551.76C2456.382,535.169 2454.045,303.77 2453.827,282.207C2453.329,232.858 2401.76,244.894 2416.176,233.914C2420.112,230.915 2562.311,231.953 2575.003,232.505C2779.418,241.391 2767.384,565.255 2623.231,585.844C2607.421,588.102 2574.644,589.549 2558.911,590.127C2559.679,590.176 2556.733,590.255 2553.221,590.325L2552.779,590.339L2552.794,590.333C2550.246,590.383 2547.471,590.426 2545.631,590.448ZM2546.197,580.743L2546.201,580.744C2548.213,581.265 2551.725,581.207 2553.883,581.189C2556.303,581.168 2558.865,580.647 2559.48,580.535C2574.8,577.74 2599.651,573.773 2619.318,558.014C2657.831,527.152 2666.194,503.53 2670.849,476.227C2689.183,368.694 2658.895,305.152 2625.681,271.343C2590.936,235.975 2516.237,227.895 2515.649,282.227C2515.015,340.728 2515.466,535.702 2515.572,543.943C2515.889,568.713 2533.757,577.001 2546.197,580.743ZM1537.295,582.694C1542.626,581.23 1567.426,567.543 1575.288,554.783C1586.889,535.955 1584.466,534.532 1584.156,286.011C1584.099,240.163 1536.627,244.296 1532.89,239.29C1532.211,238.381 1528.578,232.202 1546.345,232.858C1620.728,235.602 1630.916,229.832 1638.062,238.915C1639.829,241.16 1639.74,241.177 1654.488,259.086C1667.365,274.723 1775.373,405.882 1814.94,454.885C1850.483,498.903 1848.915,499.921 1852.714,503.187C1853.421,503.795 1854.939,502.749 1855.646,503.356C1856.004,502.559 1858.756,501.951 1858.606,496.765C1856.384,419.79 1859.974,300.017 1855.809,285.924C1841.753,238.367 1798.533,244.02 1793.663,239.763C1784.847,232.058 1806.402,232.644 1807.69,232.679C1923.305,235.823 1923.88,229.399 1933.065,233.014C1948.063,238.917 1921.993,241.999 1920.724,242.149C1895.293,245.156 1876.821,265.695 1871.987,285.729C1867.539,304.161 1872.255,582.134 1868.511,586.698C1858.613,598.763 1842.311,580.293 1830.976,566.308C1805.487,534.859 1722.643,439.949 1710.14,423.826C1685.443,391.978 1682.207,394.334 1657.166,362.838C1621.744,318.286 1609.675,308.916 1603.097,297.556C1600.85,293.675 1595.405,295.078 1595.605,301.753C1597.012,348.786 1595.653,516.487 1596.176,524.169C1600.96,594.402 1666.152,577.431 1661.824,590.034C1660.621,593.537 1559.426,592.935 1538.639,592.297C1527.52,591.955 1515.529,588.674 1537.295,582.694ZM993.092,296.787C993.144,297.566 1000.012,351.787 979.359,311.629C976.383,305.843 949.17,232.05 837.895,240.903C794.331,244.369 803.216,291.495 803.215,304.541C803.206,391.74 802.472,393.745 807.266,394.907C808.39,395.18 857.387,397.207 872.179,392.459C884.119,388.627 912.633,372.492 919.117,335.43C922.109,318.327 928.664,323.274 929.636,324.071C932.606,326.507 929.743,381.44 930.924,456.926C930.953,458.788 931.263,478.627 929.44,480.167C909.761,496.789 936.175,436.898 881.346,410.66C858.724,399.834 805.406,404.982 804.256,406.548C802.174,409.384 803.442,448.27 802.992,535.026C802.533,623.605 932.936,566.657 972.522,530.506C1015.143,491.583 1012.932,468.337 1022.664,478.99C1026.405,483.085 1023.86,483.655 1007.462,550.528C998.978,585.131 1000.24,590.446 986.268,590.495C963.574,590.573 705.697,591.465 702.593,590.331C691.544,586.297 709.905,580.613 710.963,580.286C745.303,569.656 739.55,544.831 739.55,476.43C739.55,271.7 740.089,271.329 735.936,262.358C723.369,235.213 689.942,243.051 702.033,233.326C705.648,230.418 785.797,234.236 825.086,232.133C880.424,229.17 880.243,232.631 951.414,232.629C962.234,232.629 987.646,230.256 989.47,238.34C990.851,244.456 992.892,292.107 993.092,296.787ZM1139.265,304.541C1139.258,375.915 1139.493,448.27 1139.043,535.026C1138.583,623.605 1268.987,566.657 1308.572,530.506C1351.194,491.583 1348.983,468.337 1358.715,478.99C1362.455,483.085 1359.91,483.655 1343.513,550.528C1335.028,585.131 1336.291,590.446 1322.319,590.495C1299.625,590.573 1041.748,591.465 1038.643,590.331C1027.595,586.297 1045.956,580.613 1047.013,580.286C1081.353,569.656 1075.6,544.831 1075.6,476.43C1075.6,271.7 1076.139,271.329 1071.986,262.358C1059.42,235.213 1025.993,243.051 1038.083,233.326C1041.225,230.798 1130.561,230.337 1148.271,231.874C1151.924,232.191 1176.165,231.701 1177.614,235.601C1178.982,239.282 1151.925,244.111 1146.611,253.663C1140.22,265.153 1139.266,295.293 1139.265,304.541ZM4534.347,577.432C4533.183,602.037 4524.839,582.027 4488.388,589.514C4437.579,599.951 4376.112,594.362 4351.486,580.267C4241.344,517.228 4245.18,328.12 4336.539,258.214C4416.546,196.994 4460.735,248.974 4524.865,230.071C4542.385,224.907 4539.202,234.888 4542.066,253.036C4555.974,341.156 4556.518,341.435 4555.585,342.591C4548.926,350.844 4542.176,329.243 4527.513,308.022C4521.909,299.911 4478.486,237.066 4428.092,235.969C4340.111,234.054 4327.665,313.279 4323.736,408.953C4317.895,551.182 4405.921,570.832 4440.921,577.432C4511.678,590.774 4521.428,526.692 4536.539,499.945C4556.242,465.069 4535.216,559.086 4534.347,577.432ZM4770.055,594.907C4765.509,595.262 4750.782,596.017 4740.498,594.71C4718.555,591.92 4694.568,584.04 4666.79,566.36C4559.405,498.014 4552.438,314.692 4679.601,250.25C4696.724,241.572 4741.436,232.362 4757.351,231.675C4763.558,231.408 4769.068,230.837 4775.991,231.986C4791.995,234.64 4821.883,242.647 4849.636,260.311C4956.93,328.599 4963.891,511.764 4836.837,576.152C4819.728,584.822 4788.985,593.426 4770.055,594.907ZM4780.094,242.599C4767.403,240.052 4760.515,240.143 4755.612,240.655C4739.627,242.328 4640.903,280.587 4649.54,416.297C4654.777,498.592 4668.889,567.182 4737.977,583.024C4741.73,583.885 4745.967,585.437 4758.252,586.013C4800.592,587.998 4875.501,545.84 4866.872,410.247C4861.639,328.021 4853.098,257.249 4780.094,242.599ZM3317.816,492.734C3326.141,487.114 3323.307,485.41 3333.564,454.879C3368.955,349.534 3367.333,349.34 3402.888,243.834C3416.766,202.65 3426.239,253.341 3451.28,314.413C3524.101,492.014 3540.232,565.736 3573.436,575.97C3610.513,587.397 3565.77,585.658 3564.661,585.615C3496.619,582.969 3496.826,587.729 3428.729,585.807C3419.985,585.56 3421.566,579.726 3430.003,577.061C3432.871,576.155 3450.719,574.719 3463.668,552.283C3476.624,529.838 3466.451,520.585 3435.419,435.026C3432.691,427.506 3432.33,427.642 3400.163,341.373C3396.663,331.988 3397.041,332.115 3394.499,322.336C3391.295,310.011 3385.071,332.327 3384.766,333.422C3384.272,335.192 3338.034,477.561 3330.591,498.234C3308.439,558.474 3300.474,605.812 3288.96,576.469C3280.989,556.157 3189.947,324.15 3188.939,322.689C3182.937,313.983 3182.73,325.438 3150.656,400.119C3091.156,538.657 3092.86,544.258 3096.715,556.922C3104.414,582.218 3140.427,573.761 3136.435,583.267C3133.638,589.925 3107.706,582.987 3046.336,586.066C3045.426,586.112 3024.204,583.061 3046.188,575.843C3074.876,566.424 3085.538,527.472 3158.376,352.904C3207.17,235.962 3208.49,227.254 3216.304,228.202C3222.593,228.966 3224.919,240.826 3259.847,333.803C3308.807,464.132 3313.761,479.861 3317.816,492.734Z" style="fill:rgb(23,23,23);"/>
        </g>
    </g>
</svg>
