<?xml version="1.0" encoding="UTF-8" standalone="no"?>
<!DOCTYPE svg PUBLIC "-//W3C//DTD SVG 1.1//EN" "http://www.w3.org/Graphics/SVG/1.1/DTD/svg11.dtd">
<svg width="100%" height="100%" viewBox="0 0 4632 356" version="1.1" xmlns="http://www.w3.org/2000/svg" xmlns:xlink="http://www.w3.org/1999/xlink" xml:space="preserve" xmlns:serif="http://www.serif.com/" style="fill-rule:evenodd;clip-rule:evenodd;stroke-linejoin:round;stroke-miterlimit:2;">
    <g transform="matrix(1,0,0,1,-160.764373,-1220.374285)">
        <g transform="matrix(5.511811,0,0,5.511811,-1493.589731,11.265873)">
            <path fill="currentColor" d="M828.081,233.969C827.006,234.503 826.679,234.361 826.804,235.549C827.17,239.046 827.754,244.62 827.326,279.499C827.259,284.954 820.435,283.071 819.771,281.428C818.885,279.237 819.615,227.223 819.682,222.51C819.732,218.904 828.935,220.185 829.54,220.374C831.864,221.101 849.25,266.998 849.769,267.175C851.978,267.929 851.288,266.464 852.14,264.347C853.521,260.919 866.873,227.767 869.767,221.647C870.724,219.623 880.9,218.704 881.032,222.515C881.035,222.604 881.035,280.38 881.032,280.485C880.939,284.223 879.264,282.892 875.472,282.806C872.681,282.742 873.327,280.158 873.327,260.5C873.327,237.57 873.896,230.426 871.821,235.677C870.371,239.346 856.916,273.393 853.124,281.307C852.535,282.536 849.042,284.405 847.385,280.554C834.065,249.596 829.524,237.737 828.081,233.969Z"/>
        </g>
        <g transform="matrix(4.852919,0,0,5.300766,-2387.225849,72.509201)">
            <path fill="currentColor" d="M827.573,232.61C827.15,236.924 827.326,275.14 827.326,280.886C827.326,284.34 820.002,284.205 819.863,281.237C819.774,279.33 819.403,224.407 819.682,219.702C819.81,217.541 828.369,217.729 830.352,219.245C833.146,221.381 849.287,240.508 852.777,243.998C859.664,250.885 872.417,268.438 873.379,268.438C874.416,268.438 874,256.402 874.082,244.251C874.138,236.041 873.775,220.781 874.616,219.129C875.122,218.135 880.306,218.061 880.823,219.249C881.487,220.772 881.035,280.38 881.032,280.485C880.939,284.223 876.295,283.767 874.592,282.878C872.827,281.956 852.335,256.404 839.146,241.943C834.106,236.418 827.827,230.027 827.573,232.61Z"/>
        </g>
        <g transform="matrix(5.511811,0,0,5.511811,3202.434191,7.961886)">
            <path fill="currentColor" d="M224.97,253.485C225.796,210.069 277.015,212.605 286.198,239.606C298.171,274.807 257.991,293.554 237.877,277.029C227.252,268.3 226.453,262.386 224.97,253.485ZM253.465,228.049C216.58,234.912 233.809,285.735 265.39,273.216C286.082,265.014 285.318,226.902 253.465,228.049Z"/>
        </g>
        <g transform="matrix(-5.452082,0,0,5.3268,3894.674408,60.771125)">
            <path fill="currentColor" d="M616.975,275.769C617.009,271.654 617.081,227.85 616.823,224.828C616.633,222.587 613.707,220.28 611.636,219.696C608.45,218.797 598.03,218.376 590.326,220.054C589.094,220.322 587.932,220.644 586.88,221.026C579.448,223.726 565.856,230.105 562.286,249.003C557.921,272.105 574.872,282.582 596.691,283.88C596.859,283.89 608.779,284.061 612.7,283.418C616.766,282.751 616.951,278.825 616.975,275.769ZM609.042,227.784C609.449,229.214 609.041,244.527 609.041,258.741C609.041,265.486 609.608,274.252 608.982,275.136C608.298,276.102 587.921,276.617 581.855,273.843C569.481,268.185 568.297,259.798 569.779,251.222C574.936,221.375 608.563,226.107 609.042,227.784Z"/>
        </g>
        <g transform="matrix(-5.452082,0,0,5.3268,5785.609063,63.860731)">
            <path fill="currentColor" d="M616.975,275.769C617.009,271.654 617.081,227.85 616.823,224.828C616.633,222.587 613.747,220.113 611.636,219.696C608.417,219.059 595.865,218.157 586.88,221.026C578.933,223.564 563.19,233.49 562.408,250.132C561.186,276.157 575.842,283.038 596.691,283.88C596.86,283.886 608.779,284.061 612.7,283.418C616.766,282.751 616.951,278.825 616.975,275.769ZM609.042,227.784C609.449,229.214 609.041,244.527 609.041,258.741C609.041,265.486 609.608,274.252 608.982,275.136C608.298,276.102 587.921,276.617 581.855,273.843C569.481,268.185 568.297,259.798 569.779,251.222C574.936,221.375 608.563,226.107 609.042,227.784Z"/>
        </g>
        <g transform="matrix(5.511811,0,0,5.511811,3491.241186,8.561443)">
            <path fill="currentColor" d="M136.534,219.953C140.848,219.865 147.346,219.106 156.287,223.891C159.824,225.784 166.578,231.465 165.315,233.385C161.549,239.106 158.696,236.119 158.287,235.691C143.339,220.046 126.448,232.106 125.702,232.76C102.981,252.674 126.356,281.044 146.567,274.706C157.864,271.164 158.582,261.917 164.48,269.517C166.728,272.412 157.602,280.253 147.524,282.604C105.121,292.498 89.814,226.727 136.534,219.953Z"/>
        </g>
        <g transform="matrix(5.511811,0,0,5.476319,-1943.970508,23.162933)">
            <path fill="currentColor" d="M514.966,234.5C515.093,223.396 514.984,221.835 515.049,220.874C515.083,220.368 515.46,219.96 516.359,219.813C519.312,219.328 533.31,219.324 534.315,219.321C536.19,219.315 550.177,219.629 550.818,219.948C552.728,220.896 553.189,225.659 551.175,227.238C549.731,228.371 526.113,227.509 524.358,228.048C523.076,228.442 522.53,228.593 523.102,244.555C523.226,248.001 540.491,245.703 549.355,246.78C552.052,247.108 551.608,253.705 549.565,253.823C547.964,253.916 546.524,253.753 525.476,254.188C522.739,254.244 523.068,256.43 523.178,272.508C523.201,275.95 525.877,274.968 548.508,275.035C553.35,275.049 552.454,282.646 550.319,282.866C550.033,282.895 515.842,283.09 515.434,283C513.7,282.614 514.966,281.511 514.966,234.5Z"/>
        </g>
        <g transform="matrix(5.511811,0,0,5.511811,-1634.892679,14.96363)">
            <path fill="currentColor" d="M514.966,234.5C514.966,232.433 515.094,222.203 515.094,220.136C515.094,219.418 522.794,219.436 522.953,220.136C523.209,221.269 522.195,256.432 522.305,272.509C522.329,275.952 525.877,274.968 548.508,275.035C553.35,275.049 552.478,282.384 550.377,282.823C549.554,282.995 515.775,283.503 515.022,282.346C514.265,281.181 514.966,281.665 514.966,234.5Z"/>
        </g>
        <g transform="matrix(5.511811,0,0,5.408723,980.924833,40.750164)">
            <path fill="currentColor" d="M89.185,246.5C89.185,221.889 89.385,223.423 89.385,220.532C89.385,218.966 97.598,218.971 97.479,220.532C97.465,220.715 97.42,280.189 97.479,280.499C98.217,284.439 89.225,284.036 88.955,281.064C88.692,278.177 89.185,281.176 89.185,246.5Z"/>
        </g>
        <g transform="matrix(5.511811,0,0,5.347886,2268.213602,57.542824)">
            <path fill="currentColor" d="M89.185,246.5C89.185,221.889 89.385,223.423 89.385,220.532C89.385,218.966 97.598,218.971 97.479,220.532C97.465,220.715 97.42,280.189 97.479,280.499C98.217,284.439 89.225,284.036 88.955,281.064C88.692,278.177 89.185,281.176 89.185,246.5Z"/>
        </g>
        <g transform="matrix(5.511811,0,0,5.511811,2152.73913,13.439001)">
            <path fill="currentColor" d="M324.42,221.258C328.681,222.475 336.057,227.096 338.603,235.805C342.681,249.756 329.553,256.724 328.589,256.486C326.78,256.039 344.144,278.992 343.957,280.846C343.741,282.986 337.748,283.622 335.987,281.156C334.778,279.461 334.916,279.402 321.065,259.836C316.906,253.961 307.448,255.521 307.478,257.476C307.505,259.188 307.607,276.419 307.501,280.49C307.433,283.098 299.313,283.72 299.187,280.519C299.002,275.798 298.672,223.958 299.419,221.459C300.214,218.805 319.433,219.833 324.42,221.258ZM317.389,250.184C322.959,250.139 327.382,250.394 330.501,247.386C333.115,244.864 333.593,242.278 333.279,238.337C332.254,225.48 308.901,224.951 307.757,226.924C306.396,229.269 306.867,230.451 306.95,246.312C306.974,250.926 314.329,250.208 317.389,250.184Z"/>
        </g>
        <g transform="matrix(5.511811,0,0,5.511811,-1907.264912,14.128651)">
            <path fill="currentColor" d="M420.868,251.344C433.395,279.4 436.566,282.595 432.522,282.833C426.643,283.179 426.043,282.967 423.745,277.39C420.834,270.327 420.496,267.827 416.498,267.816C390.7,267.749 390.036,266.793 388.966,269.731C384.642,281.593 384.81,282.61 381.53,282.781C380.999,282.809 375.348,283.105 375.221,281.614C375.215,281.55 375.158,281.237 375.259,280.784C376.721,274.234 396.015,233.612 397.888,230.139C398.749,228.543 403.738,213.548 408.141,223.358C409.139,225.582 416.889,242.848 420.868,251.344ZM410.132,247.656C406.727,239.943 405.697,236.316 404.508,236.55C403.484,236.752 393.731,258.813 393.749,259.487C393.789,260.936 395.632,260.494 413.503,260.535C415.78,260.541 415.417,258.942 410.132,247.656Z"/>
        </g>
        <g transform="matrix(5.511811,0,0,5.511811,-128.407765,15.679774)">
            <path fill="currentColor" d="M420.868,251.344C433.395,279.4 436.566,282.595 432.522,282.833C426.643,283.179 426.043,282.967 423.745,277.39C420.834,270.327 420.496,267.827 416.498,267.816C390.7,267.749 390.036,266.793 388.966,269.731C384.642,281.593 384.81,282.61 381.53,282.781C380.999,282.809 375.348,283.105 375.221,281.614C375.215,281.55 375.158,281.237 375.259,280.784C376.721,274.234 396.015,233.612 397.888,230.139C398.749,228.543 403.738,213.548 408.141,223.358C409.139,225.582 416.889,242.848 420.868,251.344ZM410.132,247.656C406.727,239.943 405.697,236.316 404.508,236.55C403.484,236.752 393.731,258.813 393.749,259.487C393.789,260.936 395.632,260.494 413.503,260.535C415.78,260.541 415.417,258.942 410.132,247.656Z"/>
        </g>
        <g transform="matrix(5.511811,0,0,5.511811,1351.567247,13.493897)">
            <path fill="currentColor" d="M420.868,251.344C433.395,279.4 436.566,282.595 432.522,282.833C426.643,283.179 426.043,282.967 423.745,277.39C420.834,270.327 420.496,267.827 416.498,267.816C390.7,267.749 390.036,266.793 388.966,269.731C384.642,281.593 384.81,282.61 381.53,282.781C380.999,282.809 375.348,283.105 375.221,281.614C375.215,281.55 375.158,281.237 375.259,280.784C376.721,274.234 396.015,233.612 397.888,230.139C398.749,228.543 403.738,213.548 408.141,223.358C409.139,225.582 416.889,242.848 420.868,251.344ZM410.132,247.656C406.727,239.943 405.697,236.316 404.508,236.55C403.484,236.752 393.731,258.813 393.749,259.487C393.789,260.936 395.632,260.494 413.503,260.535C415.78,260.541 415.417,258.942 410.132,247.656Z"/>
        </g>
    </g>
</svg>
