<?xml version="1.0" encoding="UTF-8" standalone="no"?>
<!DOCTYPE svg PUBLIC "-//W3C//DTD SVG 1.1//EN" "http://www.w3.org/Graphics/SVG/1.1/DTD/svg11.dtd">
<svg width="100%" height="100%" viewBox="0 0 4686 407" version="1.1" xmlns="http://www.w3.org/2000/svg" xmlns:xlink="http://www.w3.org/1999/xlink" xml:space="preserve" xmlns:serif="http://www.serif.com/" style="fill-rule:evenodd;clip-rule:evenodd;stroke-linejoin:round;stroke-miterlimit:2;">
    <g transform="matrix(1,0,0,1,-155.36392,-1293.637222)">
        <g id="d-de-ade" serif:id="d de ade" transform="matrix(1.055971,0,0,1.044225,-27.267427,-66.439442)">
            <path fill="currentColor" d="M530.212,1677.452C519.901,1672.61 520.748,1644.331 520.748,1644.331C519.083,1597.065 518.348,1541.228 507.762,1411.132C504.628,1372.623 513.469,1352.818 525.692,1340.82C538.362,1328.382 546.983,1318.943 585.733,1310.863C596.455,1308.627 642.086,1307.18 665.777,1311.147C669.475,1311.721 672.892,1312.197 676.276,1312.726C689.662,1314.822 708.394,1319.505 730.253,1331.011C741.373,1336.864 772.077,1361.918 781.069,1372.125C790.186,1382.474 790.976,1383.079 798.055,1393.969C804.799,1404.343 812.238,1421.877 812.782,1423.065C827.573,1455.358 829.042,1472.465 829.942,1495.91C830.154,1501.424 838.157,1587.26 803.336,1639.495C783.218,1669.675 740.132,1686.132 689.007,1688.592C647.732,1690.577 537.114,1680.694 530.212,1677.452ZM560.397,1362.898C552.942,1379.437 589.195,1388.834 589.195,1388.834C589.195,1388.834 609.572,1394.506 628.039,1417.599C645.262,1439.137 634.939,1485.936 627.979,1506.842C608.239,1566.146 610.512,1575.293 610.099,1580.649C607.985,1608.024 651.714,1644.824 693.16,1639.39C709.067,1637.304 750.29,1608.017 757.514,1576.2C762.064,1556.16 757.951,1516.122 753.788,1497.944C752.982,1494.422 745.036,1468.879 741.277,1457.206C737.345,1444.994 724.912,1420.013 720.957,1414.612C701.505,1388.052 694.28,1383.599 682.314,1374.681C671.494,1366.618 639.916,1348.206 603.402,1349.313C592.281,1349.65 566.204,1350.018 560.397,1362.898Z" style="fill-opacity:0.98;"/>
        </g>
        <g id="d-de-ade1" serif:id="d de ade" transform="matrix(1.055971,0,0,1.044225,1857.304016,-69.175425)">
            <path fill="currentColor" d="M530.212,1677.452C519.901,1672.61 520.748,1644.331 520.748,1644.331C519.083,1597.065 518.348,1541.228 507.762,1411.132C504.628,1372.623 513.469,1352.818 525.692,1340.82C538.362,1328.382 546.983,1318.943 585.733,1310.863C596.455,1308.627 642.086,1307.18 665.777,1311.147C669.475,1311.721 672.892,1312.197 676.276,1312.726C689.662,1314.822 708.394,1319.505 730.253,1331.011C741.373,1336.864 772.077,1361.918 781.069,1372.125C790.186,1382.474 790.976,1383.079 798.055,1393.969C804.799,1404.343 812.238,1421.877 812.782,1423.065C827.573,1455.358 829.042,1472.465 829.942,1495.91C830.154,1501.424 838.157,1587.26 803.336,1639.495C783.218,1669.675 740.132,1686.132 689.007,1688.592C647.732,1690.577 537.114,1680.694 530.212,1677.452ZM560.397,1362.898C552.942,1379.437 589.195,1388.834 589.195,1388.834C589.195,1388.834 609.572,1394.506 628.039,1417.599C645.262,1439.137 634.939,1485.936 627.979,1506.842C608.239,1566.146 610.512,1575.293 610.099,1580.649C607.985,1608.024 651.714,1644.824 693.16,1639.39C709.067,1637.304 750.29,1608.017 757.514,1576.2C762.064,1556.16 757.951,1516.122 753.788,1497.944C752.982,1494.422 745.036,1468.879 741.277,1457.206C737.345,1444.994 724.912,1420.013 720.957,1414.612C701.505,1388.052 694.28,1383.599 682.314,1374.681C671.494,1366.618 639.916,1348.206 603.402,1349.313C592.281,1349.65 566.204,1350.018 560.397,1362.898Z" style="fill-opacity:0.98;"/>
        </g>
        <g id="e" transform="matrix(4.631836,0,0,4.631836,140,1300)">
            <path fill="currentColor" d="M181.392,3.651C189.098,6.894 199.427,10.972 201.846,11.086C206.946,11.325 211.422,8.932 214.268,2.279C214.268,2.279 214.556,10.206 214.403,12.555C214.213,15.471 213.845,18.591 212.112,21.38C211.227,22.805 207.627,26.119 203.441,27.285C199.927,28.265 190.185,28.297 186.875,23.573C181.047,15.253 178.393,14.328 176.378,13.405C174.739,12.654 172.804,11.005 165.471,11.899C161.559,12.375 159.503,16.726 158.824,19.856C158.189,22.781 160.01,26.225 160.919,27.889C163.152,31.978 169.169,34.001 171.213,34.458C186.08,37.777 181.184,38.329 200.182,39.781C202.933,39.992 202.3,41.389 201.08,42.467C198.603,44.654 193.041,42.972 188.554,42.963C179.419,42.946 176.886,48.609 176.146,49.622C170.433,57.445 174.654,69.823 182.501,74.501C183.978,75.381 191.388,78.632 196.564,78.476C198.085,78.431 202.382,78.856 206.062,76.528C210.489,73.728 213.441,64.104 213.51,63.933C213.899,84.773 208.938,86.135 189.044,85.733C185.326,85.658 148.605,86.655 152.629,56.521C153.011,53.661 154.433,51.394 154.699,51.062C155.555,49.996 155.493,49.371 157.342,47.644C159.464,45.663 160.345,44.031 164.563,43.064C167.279,42.441 171.139,42.12 180.178,41.76C177.491,40.955 174.616,40.949 171.904,40.238C168.346,39.306 160.378,37.032 158.302,35.626C155.534,33.752 151.977,31.334 150.442,23.914C149.597,19.832 149.633,16.697 150.268,13.283C153.766,-5.531 178.194,2.305 181.392,3.651Z" style="fill-opacity:0.98;"/>
        </g>
        <g transform="matrix(4.631836,0,0,4.631836,125,1300)">
            <path fill="currentColor" d="M220.18,2.581C222.845,-1.084 243.827,-2.307 245.36,3.651C245.613,4.633 247.093,28.003 246.308,39.49C246.015,43.776 243.745,46.098 243.439,46.454C240.334,50.062 215.299,64.872 226.49,64.669C238.302,64.454 243.228,47.395 266.452,63.564C277.33,71.138 278.258,62.504 279.343,59.332C280.232,83.036 279.836,82.96 274.016,84.999C271.583,85.851 221.757,86.863 219.415,85.314C218.007,84.382 217.672,80.089 217.641,77.488C217.49,64.865 218.167,42.539 218.272,33.479C218.594,6.345 218.226,5.269 220.18,2.581Z" style="fill-opacity:0.98;"/>
        </g>
        <g transform="matrix(4.631836,0,0,4.631836,81.052616,1306.096641)">
            <path fill="currentColor" d="M319.081,-1.147C321.924,-2.965 328.85,-1.754 331.686,-1.147C333.334,-0.794 339.13,2.014 341.252,3.52C344.966,6.155 346.481,7.051 348.773,10.529C350.6,13.303 359.523,31.916 359.912,33.622C360.264,35.164 366.607,48.793 367.454,50.29C368.62,52.351 376.181,63.36 377.743,60.546C379.082,58.133 374.19,45.207 373.557,43.376C372.617,40.653 367.446,33.088 366.196,31.405C365.714,30.755 362.352,25.287 361.647,24.4C360.193,22.571 355.818,15.173 355.109,13.595C353.6,10.235 354.202,5.753 354.266,4.61C354.41,2.002 356.769,-0.847 359.938,-1.147C363.342,-1.469 372.961,-1.559 377.792,-1.147C379.398,-1.01 382.497,-0.366 382.984,2.334C383.106,3.007 384.33,35.272 384.25,41.748C384.213,44.678 384.079,65.711 384.007,70.621C383.945,74.859 384.276,84.329 383.973,83.998C383.973,83.998 380.005,77.67 370.7,76.937C368.728,76.782 361.582,75.809 355.388,72.873C349.779,70.215 347.816,64.84 346.275,62.239C343.753,57.981 341.242,40.991 340.123,37.338C337.204,27.81 324.13,16.935 322.945,20.656C322.743,21.287 322.012,23.596 323.369,30.672C324.476,36.442 326.928,40.586 328.39,43.376C329.427,45.356 331.762,51.219 335.234,55.644C336.509,57.269 339.961,61.353 341.234,63.623C344.342,69.163 346.238,83.727 339.428,83.998C329.813,84.379 321.326,84.978 319.685,83.18C316.581,79.781 317.636,77.424 317.636,71.499C317.636,63.833 317.636,56.167 317.636,48.5C317.636,44.003 317.006,14.003 317.049,10.701C317.061,9.757 316.613,0.431 319.081,-1.147Z" style="fill-opacity:0.99;"/>
        </g>
        <g transform="matrix(4.631836,0,0,4.631836,93.917661,1296.241288)">
            <path fill="currentColor" d="M595.737,80.411C594.601,88.259 569.511,87.802 570.154,78.517C570.344,75.777 569.694,12.457 570.812,6.692C572.632,-2.689 596.221,-1.991 596.191,7.614C596.175,12.804 596.106,77.859 595.737,80.411Z" style="fill-opacity:0.99;"/>
        </g>
        <g transform="matrix(4.631836,0,0,4.631836,-1215.227848,1298.185898)">
            <path fill="currentColor" d="M595.737,80.411C594.601,88.259 569.511,87.802 570.154,78.517C570.344,75.777 569.694,12.457 570.812,6.692C572.632,-2.689 596.221,-1.991 596.191,7.614C596.175,12.804 596.106,77.859 595.737,80.411Z" style="fill-opacity:0.99;"/>
        </g>
        <g transform="matrix(4.631836,0,0,4.631836,102,1301)">
            <path fill="currentColor" d="M641.234,-0.195C643.364,-0.255 649.211,0.547 651.541,1.205C653.568,1.778 659.25,5.655 660.116,6.45C660.812,7.089 663.955,11.666 664.814,13.176C665.646,14.642 666.03,15.426 666.729,17.914C666.866,18.401 668.085,25.633 668.549,27.689C669.076,30.019 669.745,33.254 669.745,33.254C670.871,42.509 671.505,35.483 671.669,34.155C671.915,32.155 672.42,29.632 672.943,27.62C673.721,24.633 674.669,19.637 675.548,17.16C675.947,16.036 677.007,13.431 677.716,12.472C678.698,11.145 681.872,6.938 682.584,6.34C684.21,4.974 688.342,2.602 691.314,1.343C693.945,0.229 698.896,0.005 701.414,0.075C703.932,0.146 707.773,0.473 710.688,1.846C717.837,5.212 713.689,78.553 711.968,83.952C711.397,85.743 686.807,87.089 685.811,83.647C685.416,82.28 684.325,70.144 685.73,65.703C687.288,60.777 698.692,51.945 700.121,48.543C705.502,35.732 706.311,14.939 705.054,14.699C703.977,14.494 699.304,31.504 695.279,39.138C694.442,40.724 691.038,45.315 688.786,47.309C686.378,49.441 682.657,51.135 680.108,52.919C678.868,53.787 676.083,55.596 674.148,57.315C673.007,58.328 673.697,57.771 671.88,59.855C670.953,60.919 671.282,61.647 668.383,58.051C667.2,56.583 664.828,54.92 663.83,54.272C656.648,49.609 660.959,52.32 658.014,50.519C653.356,47.669 653.971,47.869 652.632,46.89C651.49,46.055 649.824,44.701 648.977,43.885C648.302,43.234 647.662,42.369 646.562,41.444C638.447,33.349 640.701,15.036 638.021,16.25C636.009,17.162 638.268,39.41 641.48,47.524C644.367,54.814 656.115,58.6 657.295,64.936C658.417,70.958 657.258,80.733 656.156,83.299C654.751,86.572 634.511,85.92 632.67,84.352C630.758,82.724 631.303,79.775 630.522,50.499C629.534,13.464 630.2,6.445 631.548,2.849C631.77,2.256 633.75,-0.238 641.234,-0.195Z" style="fill-opacity:0.98;"/>
        </g>
        <g transform="matrix(4.631836,0,0,4.631836,102,1300)">
            <path fill="currentColor" d="M821.77,44.152C822.686,43.614 829.567,39.667 830.619,38.655C834.945,34.489 835.978,27.97 833.521,20.483C832.91,18.621 830.549,14.381 827.879,11.891C823.793,8.079 813.895,8.61 810.406,10.957C807.046,13.216 805.522,18.395 805.627,22.735C805.74,27.393 808.316,33.399 814.169,34.902C821.407,36.76 820.244,41.797 820.312,42.543C820.396,43.463 820.088,47.813 820.205,49.261C820.726,55.661 819.89,67.808 820.131,82.301C820.229,88.215 794.633,86.611 794.315,83.951C794.19,82.9 794.026,15.177 795.605,5.786C797.251,-4.009 836.398,-3.832 849.89,6.801C860.249,14.965 860.915,32.437 842.715,42.893C844.409,44.649 847.031,45.263 848.834,46.906C852.586,50.324 859.769,72.6 867.153,72.061C872.62,71.662 871.566,68.272 872.461,64.766C873.884,67.42 875.592,80.049 867.17,83.273C858.441,86.615 833.875,86.868 832.183,83.778C831.255,82.085 831.978,73.96 832.462,67.094C832.684,63.937 832.856,61.047 832.794,59.17C832.299,44.237 825.655,46.596 821.77,44.152Z" style="fill-opacity:0.98;"/>
        </g>
        <g transform="matrix(1,0,0,1,4468.900886,1311.085538)">
            <path fill="currentColor" d="M12.862,264.647C-55.358,125.132 56.474,-32.728 204.08,-6.322C435.638,35.104 421.431,394.953 202.449,386.265C68.952,380.969 31.953,303.689 12.862,264.647ZM128.978,77.968C55.095,112.424 164.42,324.14 234.529,280.771C296.556,242.403 206.283,41.916 128.978,77.968Z" style="fill-opacity:1;"/>
        </g>
        <g transform="matrix(0.145564,0,0,0.152827,93.716149,1297.288935)">
            <path fill="currentColor" d="M2706.461,2139.826C2743.203,2222.877 2745.918,2212.462 2736.625,2203.4C2808.275,2320.773 2881.072,2342.92 2947.886,2344.24C3048.197,2340.903 3252.892,2248.987 3314.168,2213.016C3333.847,2242.321 3217.21,2442.644 3159.629,2484.002C3045.5,2565.977 2860.02,2669.681 2489.109,2614.944C2382.585,2599.224 2237.453,2583.373 2042.048,2410.173C1923.455,2305.056 1872.605,2196.598 1860.214,2178.571C1849.801,2163.422 1827.092,2130.384 1770.41,1967.072L1181.767,1906.872C1279.42,2210.109 1413.542,2404.218 1569.078,2605.657L428.813,2605.657C413.989,2487.478 430.656,2349.617 473.612,2195.325C507.659,2063.607 553.321,1928.019 609.035,1789.08C769.403,1452.422 864.14,1288.79 944.886,1162.045C1073.675,954.549 1221.997,752.883 1348.762,598.881L1348.761,598.878C1339.031,568.316 1321.49,512.436 1291.568,417.213C1247.516,282.259 1189.204,215.395 1150.728,181.576C1095.851,137.019 889.789,19.484 849.391,18.364C1048.568,17.838 1410.95,61.124 1610.128,132.825C1803.997,207.643 1942.628,312.59 2057.025,430.757C2178.441,570.116 2261.527,699.021 2303.495,816.713L2706.461,2139.826ZM1158.412,1817.35L1760.3,1875.142L1393.145,717.712C1367.06,718.575 1286.18,813.814 1255.916,862.164C1142.506,1043.929 1121.242,1184.27 1116.705,1214.214C1096.181,1349.669 1099.974,1439.197 1098.825,1474.806C1102.904,1542.917 1103.466,1602.757 1112.368,1617.825C1120.873,1710.592 1140.276,1770.333 1158.412,1817.35Z"/>
        </g>
        <g transform="matrix(0.145564,0,0,0.152827,1800.204399,1293.530223)">
            <path fill="currentColor" d="M2706.461,2139.826C2743.203,2222.877 2745.918,2212.462 2736.625,2203.4C2808.275,2320.773 2881.072,2342.92 2947.886,2344.24C3048.197,2340.903 3252.892,2248.987 3314.168,2213.016C3333.847,2242.321 3217.21,2442.644 3159.629,2484.002C3045.5,2565.977 2860.02,2669.681 2489.109,2614.944C2382.585,2599.224 2237.453,2583.373 2042.048,2410.173C1923.455,2305.056 1872.605,2196.598 1860.214,2178.571C1849.801,2163.422 1827.092,2130.384 1770.41,1967.072L1181.767,1906.872C1279.42,2210.109 1413.542,2404.218 1569.078,2605.657L428.813,2605.657C413.989,2487.478 430.656,2349.617 473.612,2195.325C507.659,2063.607 553.321,1928.019 609.035,1789.08C769.403,1452.422 864.14,1288.79 944.886,1162.045C1073.675,954.549 1221.997,752.883 1348.762,598.881L1348.761,598.878C1339.031,568.316 1321.49,512.436 1291.568,417.213C1247.516,282.259 1189.204,215.395 1150.728,181.576C1095.851,137.019 889.789,19.484 849.391,18.364C1048.568,17.838 1410.95,61.124 1610.128,132.825C1803.997,207.643 1942.628,312.59 2057.025,430.757C2178.441,570.116 2261.527,699.021 2303.495,816.713L2706.461,2139.826ZM1158.412,1817.35L1760.3,1875.142L1393.145,717.712C1367.06,718.575 1286.18,813.814 1255.916,862.164C1142.506,1043.929 1121.242,1184.27 1116.705,1214.214C1096.181,1349.669 1099.974,1439.197 1098.825,1474.806C1102.904,1542.917 1103.466,1602.757 1112.368,1617.825C1120.873,1710.592 1140.276,1770.333 1158.412,1817.35Z"/>
        </g>
        <g transform="matrix(0.145564,0,0,0.152827,3341.612179,1294.552951)">
            <path fill="currentColor" d="M2706.461,2139.826C2743.203,2222.877 2745.918,2212.462 2736.625,2203.4C2808.275,2320.773 2881.072,2342.92 2947.886,2344.24C3048.197,2340.903 3252.892,2248.987 3314.168,2213.016C3333.847,2242.321 3217.21,2442.644 3159.629,2484.002C3045.5,2565.977 2860.02,2669.681 2489.109,2614.944C2382.585,2599.224 2237.453,2583.373 2042.048,2410.173C1923.455,2305.056 1872.605,2196.598 1860.214,2178.571C1849.801,2163.422 1827.092,2130.384 1770.41,1967.072L1181.767,1906.872C1279.42,2210.109 1413.542,2404.218 1569.078,2605.657L428.813,2605.657C413.989,2487.478 430.656,2349.617 473.612,2195.325C507.659,2063.607 553.321,1928.019 609.035,1789.08C769.403,1452.422 864.14,1288.79 944.886,1162.045C1073.675,954.549 1221.997,752.883 1348.762,598.881L1348.761,598.878C1339.031,568.316 1321.49,512.436 1291.568,417.213C1247.516,282.259 1189.204,215.395 1150.728,181.576C1095.851,137.019 889.789,19.484 849.391,18.364C1048.568,17.838 1410.95,61.124 1610.128,132.825C1803.997,207.643 1942.628,312.59 2057.025,430.757C2178.441,570.116 2261.527,699.021 2303.495,816.713L2706.461,2139.826ZM1158.412,1817.35L1760.3,1875.142L1393.145,717.712C1367.06,718.575 1286.18,813.814 1255.916,862.164C1142.506,1043.929 1121.242,1184.27 1116.705,1214.214C1096.181,1349.669 1099.974,1439.197 1098.825,1474.806C1102.904,1542.917 1103.466,1602.757 1112.368,1617.825C1120.873,1710.592 1140.276,1770.333 1158.412,1817.35Z"/>
        </g>
        <g transform="matrix(4.631836,0,0,4.631836,102,1300)">
            <path fill="currentColor" d="M876.752,3.94C899.051,-6.033 920.173,7.261 927.696,10.398C931.822,12.119 937.609,5.24 937.609,5.24C936.901,11.203 941.175,33.617 917.621,22.332C906.383,16.947 904.718,15.079 899.537,15.291C866.447,16.644 885.512,80.011 922.623,69.331C931.788,66.693 936.962,56.586 937.629,55.07C938.918,52.145 939.446,47.872 941.368,50.478C946.958,58.055 945.489,82.85 915.91,85.82C877.061,89.721 864.381,52.787 863.485,44.569C860.284,15.189 876.833,3.87 876.752,3.94Z" style="fill-opacity:0.98;"/>
        </g>
    </g>
</svg>
