<?xml version="1.0" encoding="UTF-8" standalone="no"?>
<!DOCTYPE svg PUBLIC "-//W3C//DTD SVG 1.1//EN" "http://www.w3.org/Graphics/SVG/1.1/DTD/svg11.dtd">
<svg width="100%" height="100%" viewBox="0 0 4707 402" version="1.1" xmlns="http://www.w3.org/2000/svg" xmlns:xlink="http://www.w3.org/1999/xlink" xml:space="preserve" xmlns:serif="http://www.serif.com/" style="fill-rule:evenodd;clip-rule:evenodd;stroke-linejoin:round;stroke-miterlimit:2;">
    <g transform="matrix(1,0,0,1,-171.36392,-1300.785079)">
        <g id="ade1.png" transform="matrix(4.631836,0,0,4.631836,140,1300)">
            <g transform="matrix(0.031427,0,0,0.031427,-6.538196,3.538698)">
                <path d="M2706.461,2139.826C2743.203,2222.877 2745.918,2212.462 2736.625,2203.4C2808.275,2320.773 2881.072,2342.92 2947.886,2344.24C3048.197,2340.903 3252.892,2248.987 3314.168,2213.016C3333.847,2242.321 3217.21,2442.644 3159.629,2484.002C3045.5,2565.977 2860.02,2669.681 2489.109,2614.944C2382.585,2599.224 2237.453,2583.373 2042.048,2410.173C1923.455,2305.056 1872.605,2196.598 1860.214,2178.571C1849.801,2163.422 1827.092,2130.384 1770.41,1967.072L1181.767,1906.872C1279.42,2210.109 1413.542,2404.218 1569.078,2605.657L428.813,2605.657C413.989,2487.478 430.656,2349.617 473.612,2195.325C507.659,2063.607 553.321,1928.019 609.035,1789.08C769.403,1452.422 864.14,1288.79 944.886,1162.045C1073.675,954.549 1221.997,752.883 1348.762,598.881L1348.761,598.878C1339.031,568.316 1321.49,512.436 1291.568,417.213C1247.516,282.259 1189.204,215.395 1150.728,181.576C1095.851,137.019 889.789,19.484 849.391,18.364C1048.568,17.838 1410.95,61.124 1610.128,132.825C1803.997,207.643 1942.628,312.59 2057.025,430.757C2178.441,570.116 2261.527,699.021 2303.495,816.713L2706.461,2139.826ZM1158.412,1817.35L1760.3,1875.142L1393.145,717.712C1367.06,718.575 1286.18,813.814 1255.916,862.164C1142.506,1043.929 1121.242,1184.27 1116.705,1214.214C1096.181,1349.669 1099.974,1439.197 1098.825,1474.806C1102.904,1542.917 1103.466,1602.757 1112.368,1617.825C1120.873,1710.592 1140.276,1770.333 1158.412,1817.35Z" style="fill:rgb(173,33,33);"/>
            </g>
            <g id="d-de-ade" serif:id="d de ade" transform="matrix(0.215897,0,0,0.215897,-26.072231,-277.805552)">
                <path d="M530.212,1677.452C519.901,1672.61 520.748,1644.331 520.748,1644.331C519.083,1597.065 518.348,1541.228 507.762,1411.132C504.628,1372.623 513.469,1352.818 525.692,1340.82C538.362,1328.382 546.983,1318.943 585.733,1310.863C596.455,1308.627 642.086,1307.18 665.777,1311.147C669.475,1311.721 672.892,1312.197 676.276,1312.726C689.662,1314.822 702.526,1317.763 730.253,1331.011C736.705,1336.44 737.239,1335.188 744.091,1339.914C748.384,1343.179 748.111,1343.013 752.991,1344.769C760.21,1350.212 759.557,1350.372 772.051,1362.755C776.554,1367.898 776.326,1367.643 781.069,1372.125C790.186,1382.474 787.801,1383.658 796.782,1393.969C802.442,1400.467 812.238,1421.877 812.782,1423.065C825.822,1462.756 825.221,1478.058 825.029,1482.944L825.061,1496.851C830.015,1538.558 821.247,1616.184 800.099,1642.732C777.499,1671.103 740.132,1686.132 689.007,1688.592C647.732,1690.577 537.114,1680.694 530.212,1677.452ZM560.397,1362.898C552.942,1379.437 582.548,1380.061 602.842,1385.013C602.842,1385.013 623.432,1394.321 624.217,1397.402C643.497,1417.121 633.141,1461.416 631.255,1483.369C626.253,1541.581 613.959,1532.943 618.533,1586.62C610.414,1617.291 660.998,1643.715 693.16,1639.39C705.438,1637.739 763.316,1618.35 750.299,1580.656C750.299,1580.656 729.737,1500.393 712.119,1465.084C697.645,1436.078 683.449,1401.295 652.838,1377.924C640.891,1368.803 617.779,1348.488 600.673,1349.313C589.559,1349.849 566.204,1350.018 560.397,1362.898Z" style="fill:rgb(173,33,33);fill-opacity:0.98;"/>
            </g>
            <path d="M171.06,0.452C173.119,0.126 178.275,-0.011 182.225,0.558C182.225,0.558 185.591,1.277 189.489,3.528C189.706,3.654 193.243,6.096 194.52,7.18C198.422,10.495 203.121,12.491 208.878,10.091C210.502,9.414 211.81,3.449 212.556,2.627C214,1.035 215.923,4.365 214.403,15.488C213.828,17.477 213.792,17.358 213.437,19.483C213.324,19.899 212.365,23.437 211.54,24.528C209.764,26.72 209.957,26.75 208.267,28.284C207.075,29.416 206.953,29.158 202.565,30.856C196.909,32.229 191.481,31.499 190.526,31.37C188.627,30.501 185.753,29.297 184.573,28.432C182.825,26.593 179.235,22.854 177.647,21.384C175.617,19.296 174.25,17.34 173.532,16.477C172.612,15.323 169.435,12.149 169.224,11.974C167.022,11.205 166.992,11.203 164.749,11.953C163.317,12.192 160.244,15.512 160.932,17.844C160.603,21.271 160.043,21.732 161.787,26.479C162.215,28.327 167.126,32.122 168.78,34.1C170.085,35.424 175.052,38.07 182.488,38.687C191.523,39.437 191.332,38.832 200.182,39.781C200.785,42.176 200.691,42.323 199.47,43.401C194.087,42.597 194.165,42.959 188.554,42.963C178.9,44.839 177.393,47.347 176.36,53.485C175.889,55.517 175.89,55.468 176.395,57.519C176.558,58.218 177.113,60.598 180.464,65.519C180.96,66.532 183.05,69.915 183.417,70.566C185.162,72.503 184.862,72.854 187.346,73.705C187.737,74.026 189.57,75.527 192.646,77.147C193.248,77.314 197.814,78.426 201.395,78.056C202.029,77.854 202.668,77.568 204.345,77.1C206.23,76.155 209.19,73.888 209.592,73.58C212.962,70.999 213.25,63.958 213.51,63.933C216.287,63.668 215.302,71.174 213.494,75.793C213.364,76.124 211.555,80.559 205.194,82.771C195.389,86.179 189.459,85.271 178.073,84.999C172.307,84.861 164.669,82.5 162.743,81.657C161.708,81.204 156.162,79.446 153.49,72.31C151.033,65.75 151.645,63.887 152.629,56.521C154.062,52.232 154.323,51.907 154.589,51.575C154.881,51.208 155.173,50.84 155.465,50.473C155.883,49.908 156.301,49.344 156.72,48.78C156.809,48.709 157.839,47.896 157.839,47.896C158.446,47.438 158.25,47.312 158.798,46.852C159.015,46.67 159.422,46.902 159.639,46.72C160.286,46.372 160.932,46.025 161.579,45.678C162.497,45.467 163.416,45.257 164.334,45.046C168.74,43.095 169.106,44.483 173.598,42.62C177.548,40.983 169.82,41.105 165.577,37.387C164.15,36.196 164.203,36.308 162.639,35.352C161.441,34.43 161.745,34.253 160.663,33.348C159.958,32.215 160.292,31.975 158.835,31.286C158.62,30.642 158.22,30.901 155.394,23.53L154.343,21.686C154.188,21.005 154.26,18.954 154.104,18.273C154.41,16.936 155.172,15.828 155.478,14.492C155.941,12.47 157.526,8.659 158.937,7.059C160.821,4.921 164.14,1.548 171.06,0.452Z" style="fill:rgb(171,32,32);fill-opacity:0.98;"/>
            <path d="M221.496,2.49C232.018,2.431 231.94,2.442 242.51,2.459C243.689,3.097 243.583,3.08 243.689,3.097C244.142,3.171 243.911,2.651 244.408,2.732C245.205,3.607 246.009,7.285 246.309,8.503C246.353,24.07 246.702,23.995 246.308,39.49C245.312,43.415 244.574,44.939 244.358,45.386C244.051,45.742 243.745,46.098 243.439,46.454C242.401,47.425 242.465,47.365 241.404,48.37C241.025,48.658 240.646,48.945 240.267,49.232C239.197,49.716 239.268,49.694 238.464,50.441C238.154,50.695 236.345,52.18 234.388,53.344C232.407,54.391 232.457,54.363 230.476,55.458C230.12,55.738 229.763,56.018 229.406,56.298C228.76,56.687 228.113,57.076 227.467,57.465C225.867,58.921 225.9,58.878 224.706,60.605C224.258,63.111 224.493,63.254 226.49,64.669C228.644,64.425 228.549,64.415 230.515,63.551C238.017,59.974 237.848,59.747 238.552,59.613C239.651,59.124 239.764,59.494 244.505,57.525C252.332,55.533 254.906,57.66 256.625,58.138C258.374,58.902 258.3,59.063 260.229,58.984C260.41,59.107 261.367,59.755 262.484,60.528C263.11,60.92 263.735,61.312 264.36,61.704C264.524,61.856 265.37,62.638 266.452,63.564C267.344,64.277 267.267,64.265 268.412,64.673C271.857,66.971 272.79,65.412 273.732,64.68C274.786,63.372 274.653,63.346 274.77,61.598C275.374,58.329 274.234,57.181 277.511,56.471C277.704,58.131 277.613,58.112 278.429,59.513C279.083,68.771 278.993,71.943 277.739,75.584C277.56,76.504 277.382,77.424 277.204,78.344C275.823,79.875 275.743,79.649 274.389,81.301C270.841,83.61 270.65,83.968 245.515,83.968C221.941,83.968 221.173,84.65 218.671,81.382C218.328,80.084 217.984,78.786 217.641,77.488C218.116,64.475 218.167,42.539 218.272,33.479C218.594,6.345 218.761,4.377 221.496,2.49Z" style="fill:rgb(171,32,32);fill-opacity:0.98;"/>
            <path d="M309.575,81.201C309.539,82.417 282.591,84.226 282.536,80.499C282.242,60.566 283.119,8.517 283.936,6.832C286.735,1.059 308.533,2.131 309.238,6.602C310.274,13.169 310.368,54.724 309.575,81.201Z" style="fill:rgb(176,33,33);fill-opacity:0.98;"/>
            <path d="M321.489,2.455C324.164,2.445 326.839,2.436 329.515,2.426L331.49,2.583C332.506,2.836 333.522,3.088 334.537,3.34C335.184,3.556 340.827,5.438 342.337,6.777C343.914,8.172 343.904,8.094 345.521,9.475C346.131,9.87 346.741,10.264 347.351,10.659C347.54,10.872 347.446,10.917 349.511,13.49C350.409,14.633 350.363,14.578 351.338,15.603C352.235,17.199 352.13,17.194 353.332,18.609C354.034,19.454 364.375,37.314 364.426,37.536C365.24,39.169 365.122,39.179 366.298,40.591C366.659,41.183 369.883,48.094 370.789,49.298C372.065,50.993 377.735,69.164 377.743,60.546C377.745,57.786 371.328,39.209 370.696,37.378C369.857,34.259 368.788,34.161 367.537,32.478C367.244,32.11 366.952,31.743 366.659,31.376C366.333,31.028 366.008,30.68 365.683,30.332C364.291,28.283 364.367,28.315 362.717,26.375C362.152,25.332 362.358,25.282 361.647,24.4C357.058,18.703 357.04,15.798 356.54,14.489C356.193,12.381 356.243,12.438 355.544,10.494C355.35,5.549 355.239,5.613 355.445,4.487C356.037,1.253 357.318,2.709 360.488,2.409C363.283,2.399 371.838,2.558 376.51,2.384C378.116,2.52 379.722,2.657 381.328,2.794C381.697,3.37 382.065,3.946 382.434,4.522C383.35,13.443 382,61.282 383.151,67.571C382.844,71.581 382.605,71.538 383.309,75.511C383.365,79.728 384.109,80.3 380.628,82.845C378.41,84.466 377.774,80.235 377.401,79.541C375.837,77.14 376.488,76.841 374.599,74.426C372.862,72.888 366.025,70.068 361.394,68.841C360.036,68.222 360.116,68.283 358.631,68.206C357.734,67.507 357.781,67.486 356.608,67.278C355.18,66.14 355.226,66.258 353.59,65.374C352.817,65.029 351.29,64.349 345.68,58.34C344.316,56.192 344.413,56.242 342.678,54.41C341.665,52.787 341.698,52.874 340.671,51.364C339.755,49.744 339.867,49.778 338.695,48.393L338.486,47.508C338.271,47.223 338.32,47.211 336.582,43.474C335.239,40.791 334.731,41.164 333.678,38.386C332.669,36.377 332.711,36.447 331.519,34.488C330.54,32.959 330.821,32.863 329.719,31.437C327.997,27.583 323.43,16.501 322.17,20.303C321.962,20.932 321.773,21.503 323.731,28.436C325.285,33.938 325.006,33.91 326.534,39.491C326.687,40.434 326.84,41.377 326.992,42.32C327.312,42.995 329.014,46.586 331.563,50.469C331.857,50.917 331.69,50.898 331.847,51.323C331.912,51.498 332.261,51.439 332.326,51.614C333.514,53.88 333.413,53.866 335.234,55.644C335.647,56.272 336.059,56.899 336.471,57.527C337.419,58.7 337.349,58.614 338.336,59.609L338.631,60.405C339.905,62.067 339.758,62.073 341.234,63.623C345.576,71.912 347.316,82.434 340.501,82.538C321.318,82.83 321.335,83.407 319.685,83.18C317.297,77.635 318.118,77.514 317.636,71.499C317.636,63.833 317.636,56.167 317.636,48.5C319.521,16.982 316.339,7.302 319.403,3.377C320.294,3.05 321.325,2.536 321.489,2.455Z" style="fill:rgb(171,32,32);fill-opacity:0.99;"/>
            <g transform="matrix(0.031252,0,0,0.031252,371.592721,1.814734)">
                <path d="M2706.461,2139.826C2743.203,2222.877 2745.918,2212.462 2736.625,2203.4C2808.275,2320.773 2881.072,2342.92 2947.886,2344.24C3048.197,2340.903 3252.892,2248.987 3314.168,2213.016C3333.847,2242.321 3217.21,2442.644 3159.629,2484.002C3045.5,2565.977 2860.02,2669.681 2489.109,2614.944C2382.585,2599.224 2237.453,2583.373 2042.048,2410.173C1923.455,2305.056 1872.605,2196.598 1860.214,2178.571C1849.801,2163.422 1827.092,2130.384 1770.41,1967.072L1181.767,1906.872C1279.42,2210.109 1413.542,2404.218 1569.078,2605.657L428.813,2605.657C413.989,2487.478 430.656,2349.617 473.612,2195.325C507.659,2063.607 553.321,1928.019 609.035,1789.08C769.403,1452.422 864.14,1288.79 944.886,1162.045C1073.675,954.549 1221.997,752.883 1348.762,598.881L1348.761,598.878C1339.031,568.316 1321.49,512.436 1291.568,417.213C1247.516,282.259 1189.204,215.395 1150.728,181.576C1095.851,137.019 889.789,19.484 849.391,18.364C1048.568,17.838 1410.95,61.124 1610.128,132.825C1803.997,207.643 1942.628,312.59 2057.025,430.757C2178.441,570.116 2261.527,699.021 2303.495,816.713L2706.461,2139.826ZM1158.412,1817.35L1760.3,1875.142L1393.145,717.712C1367.06,718.575 1286.18,813.814 1255.916,862.164C1142.506,1043.929 1121.242,1184.27 1116.705,1214.214C1096.181,1349.669 1099.974,1439.197 1098.825,1474.806C1102.904,1542.917 1103.466,1602.757 1112.368,1617.825C1120.873,1710.592 1140.276,1770.333 1158.412,1817.35Z" style="fill:rgb(173,33,33);"/>
            </g>
            <path d="M513.609,2.802C515.106,2.968 515.026,2.995 516.499,2.492L518.487,2.409C525.561,2.204 525.482,2.151 532.514,2.422L534.493,2.557C535.503,2.844 536.514,3.13 537.525,3.416C541.613,4.891 541.555,4.848 545.414,6.725C545.786,6.994 548.223,8.754 550.348,9.649C550.691,9.945 553.169,12.082 554.436,13.578C555.412,14.635 555.354,14.579 556.43,15.554C556.654,15.807 556.607,15.705 559.314,18.647C559.66,19.289 560.006,19.932 560.352,20.575C560.685,21.24 561.017,21.906 561.35,22.572C561.626,23.74 561.617,23.646 562.291,24.572C570.7,44.113 564.088,57.425 562.332,61.429C561.613,62.338 561.629,62.244 561.306,63.351C559.665,65.305 559.985,65.48 558.38,67.416C556.003,69.646 556.101,69.608 554.354,72.36C554.021,72.688 553.687,73.017 553.354,73.345C551.847,74.331 551.888,74.208 550.496,75.496C549.759,76.274 549.746,76.158 549.293,77.196C545.679,79.188 545.733,79.225 545.401,79.355C545.113,79.49 543.382,80.304 541.758,80.967C538.011,83.619 537.697,83.514 510.507,83.836C504.984,83.902 498.377,84.82 498.265,81.521C497.827,68.504 497.98,19.955 498.646,18.543C499.617,16.482 500.085,16.777 500.741,14.582C501.617,13.548 501.565,13.625 502.337,12.4L502.596,11.557C503.364,10.668 507.151,6.965 507.553,6.572C510.521,4.521 510.589,4.783 513.609,2.802L509.587,11.711C506.487,14.473 508.439,17.715 510.386,19.669C512.04,19.884 511.917,20.017 513.379,20.772C513.743,21.035 514.107,21.298 514.471,21.561L515.332,21.765C515.753,22.31 516.173,22.855 516.594,23.401C517.176,23.83 517.757,24.26 518.339,24.69C519.194,25.472 519.425,24.985 520.331,25.796C520.53,25.974 520.24,26.412 520.439,26.591C522.374,26.745 522.008,27.304 522.325,27.569C522.424,28.538 522.524,29.508 522.623,30.477C522.893,31.488 523.162,32.5 523.432,33.512L523.498,34.5C524.535,38.102 524.346,38.147 524.406,60.51C524.895,63.803 525.508,63.467 527.331,64.762C527.721,65.341 528.112,65.92 528.502,66.499L528.739,67.363C529.257,67.811 529.776,68.259 530.294,68.707C530.636,69.049 530.978,69.39 531.32,69.732C531.699,70.022 532.077,70.312 532.455,70.602L532.699,71.041C534.642,70.755 534.592,70.897 536.334,71.762C536.747,72.307 537.16,72.852 537.573,73.397C540.651,75.415 540.815,75.227 544.399,74.343C545.072,72.153 545.647,72.724 545.725,72.645C545.914,70.733 546.397,71.01 547.558,69.526C547.938,68.821 549.542,65.848 547.461,59.511C547.2,58.827 546.939,58.142 546.678,57.458C545.798,55.566 545.881,55.605 545.688,53.466C544.912,51.63 544.76,51.676 545.079,49.704C543.954,48.219 543.486,48.581 543.056,46.684C542.953,46.231 541.849,43.662 541.737,43.402C541.271,42.318 541.231,42.433 540.679,41.377C540.324,40.727 539.969,40.077 539.614,39.427C537.283,36.622 538.114,36.112 535.68,33.344C534.695,32.337 533.884,31.521 533.727,31.363C532.729,29.27 532.701,29.386 532.482,28.514C531.503,27.395 529.675,24.893 529.44,24.572C526.999,23.68 527.462,22.72 527.381,22.619C526.809,22.189 526.238,21.759 525.667,21.329C525.64,21.298 523.959,18.692 523.509,18.49C523.347,18.417 522.457,18.016 521.634,17.286C519.713,17.093 519.978,16.644 518.639,15.341C518.287,14.984 518.291,15.019 514.432,11.938C513.907,11.994 514.05,12.24 513.511,12.298C511.266,12.538 511.368,11.977 509.587,11.711L513.609,2.802Z" style="fill:rgb(174,33,33);fill-opacity:0.98;"/>
            <path d="M592.5,84.999L573.5,84.999C570.46,83.137 570.358,83.013 570.154,82.765C568.409,80.643 569.438,12.401 570.812,6.692C571.384,6.317 571.956,5.943 572.528,5.568C579.213,2.98 595.207,3.671 596.191,7.614C597.447,12.649 596.427,71.911 596.296,74.487C595.983,80.61 597.872,81.991 592.5,84.999Z" style="fill:rgb(176,33,33);fill-opacity:0.99;"/>
            <g transform="matrix(1,0,0,1,0,0.215897)">
                <path d="M641.469,1.63C643.476,2.184 643.389,2.177 645.479,2.578C646.832,2.836 648.185,3.094 649.538,3.351C653.281,4.491 653.414,4.116 655.45,5.583C655.706,5.803 657.533,7.378 658.614,8.382C659.64,9.359 660.488,10.196 660.649,10.356C662.585,12.489 662.194,12.694 664.241,14.607C664.821,17.087 665.1,16.929 665.799,19.417C665.936,19.904 666.759,22.834 667.619,25.471C667.889,26.484 668.159,27.497 668.429,28.51L668.623,30.472L668.958,33.398C672.374,42.867 672.592,31.836 672.599,31.508C672.719,31.174 673.651,28.582 674.303,27.406C675.016,25.551 676.139,18.89 677.694,15.587C678.854,14.151 678.742,14.154 679.576,12.543C679.936,11.9 680.295,11.256 680.654,10.612C680.955,10.255 681.256,9.898 681.556,9.541C682.634,8.571 682.589,8.612 683.585,7.628C688.159,4.001 692.605,3.392 693.46,3.275C694.808,3.035 696.155,2.794 697.503,2.554L702.487,2.397C705.005,2.468 704.941,2.525 707.438,2.605C711.394,6.719 709.772,78.482 709.326,80.437C709.187,80.608 708.477,81.48 707.499,82.499C704.897,84.291 686.713,84.45 684.626,82.395C683.331,81.119 682.617,74.996 684.541,69.51C684.942,68.543 685.342,67.577 685.743,66.61C686.695,65.017 686.4,64.985 687.24,63.368C689.735,59.807 689.766,59.93 692.533,56.523C692.904,55.889 693.275,55.255 693.646,54.621C695.667,52.368 695.421,52.297 696.727,49.587C697.822,48.115 697.409,47.952 698.556,46.531C699.61,44.502 699.575,44.571 700.504,42.502C705.561,32.76 709.129,-3.918 702.265,24.457C700.238,32.834 699.752,36.732 695.529,41.522C693.873,42.948 694.028,43.023 692.555,44.578C690.334,45.637 688.675,47.044 688.37,47.302C686.767,48.201 686.798,48.071 685.386,49.295C685.162,49.481 684.963,49.112 682.338,51.287C680.748,52.283 680.759,52.17 679.464,53.451C678.899,53.954 678.956,53.91 678.406,54.393C677.269,55.393 677.505,55.501 676.397,56.425C675.152,57.814 675.274,57.831 674.434,59.466C672.975,62.747 674.381,63.248 672.186,66.136C672.113,66.232 670.513,66.773 669.485,66.543C668.108,66.236 668.718,65.711 668.439,63.512C668.129,62.507 667.82,61.501 667.51,60.496C666.786,58.843 666.933,58.821 665.731,57.402C662.867,52.842 663.024,52.647 658.307,49.896L656.607,49.281C654.194,47.692 654.139,47.93 651.643,46.341C651.397,46.107 651.45,46.153 648.575,43.408C647.609,42.314 647.662,42.369 646.562,41.444C638.447,33.349 639.132,10.581 635.897,15.781C634.99,17.239 636.874,29.217 637.458,31.508L637.857,34.436C640.712,46.675 640.751,46.719 641.48,47.524C642.101,47.912 642.721,48.301 643.341,48.689C644.599,49.635 646.751,52.451 647.019,52.802C647.32,53.196 647.077,53.26 647.38,53.595C647.456,53.679 647.38,53.595 648.348,54.638C649.71,56.734 649.648,56.711 651.354,58.594C651.667,58.951 651.981,59.308 652.294,59.665C652.742,60.7 652.724,60.604 653.511,61.493C653.791,61.864 654.071,62.235 654.352,62.605C655.086,63.908 654.809,64.177 656.242,64.661C657.131,65.853 660.133,81.571 657.498,82.494C657.344,82.548 635.137,83.337 633.296,81.77C631.384,80.141 631.303,79.775 630.522,50.499C629.534,13.464 632.259,6.192 633.606,2.596C633.829,2.003 633.984,1.588 641.469,1.63Z" style="fill:rgb(174,33,33);fill-opacity:0.98;"/>
            </g>
            <g transform="matrix(0.031427,0,0,0.031427,699.638945,1.56232)">
                <path d="M2706.461,2139.826C2743.203,2222.877 2745.918,2212.462 2736.625,2203.4C2808.275,2320.773 2881.072,2342.92 2947.886,2344.24C3048.197,2340.903 3252.892,2248.987 3314.168,2213.016C3333.847,2242.321 3217.21,2442.644 3159.629,2484.002C3045.5,2565.977 2860.02,2669.681 2489.109,2614.944C2382.585,2599.224 2237.453,2583.373 2042.048,2410.173C1923.455,2305.056 1872.605,2196.598 1860.214,2178.571C1849.801,2163.422 1827.092,2130.384 1770.41,1967.072L1181.767,1906.872C1279.42,2210.109 1413.542,2404.218 1569.078,2605.657L428.813,2605.657C413.989,2487.478 430.656,2349.617 473.612,2195.325C507.659,2063.607 553.321,1928.019 609.035,1789.08C769.403,1452.422 864.14,1288.79 944.886,1162.045C1073.675,954.549 1221.997,752.883 1348.762,598.881L1348.761,598.878C1339.031,568.316 1321.49,512.436 1291.568,417.213C1247.516,282.259 1189.204,215.395 1150.728,181.576C1095.851,137.019 889.789,19.484 849.391,18.364C1048.568,17.838 1410.95,61.124 1610.128,132.825C1803.997,207.643 1942.628,312.59 2057.025,430.757C2178.441,570.116 2261.527,699.021 2303.495,816.713L2706.461,2139.826ZM1158.412,1817.35L1760.3,1875.142L1393.145,717.712C1367.06,718.575 1286.18,813.814 1255.916,862.164C1142.506,1043.929 1121.242,1184.27 1116.705,1214.214C1096.181,1349.669 1099.974,1439.197 1098.825,1474.806C1102.904,1542.917 1103.466,1602.757 1112.368,1617.825C1120.873,1710.592 1140.276,1770.333 1158.412,1817.35Z" style="fill:rgb(173,33,33);"/>
            </g>
            <path d="M855.5,84.999L837.5,84.999C832.915,82.553 832.897,82.709 832.503,82.496C831.989,81.779 830.648,79.908 832.374,71.473C833.163,67.95 833.261,66.88 833.299,66.475C834.561,52.776 832.378,52.396 831.675,50.384C831.123,48.545 830.916,48.709 829.565,47.435C827.547,45.898 821.826,44.3 821.77,44.152C819.994,39.44 823.414,41.009 828.402,40.26C829.624,39.581 829.54,39.638 830.619,38.655C831.472,37.468 837.096,29.647 832.543,20.483C831.885,18.598 832.33,18.467 830.765,16.343C830.322,15.744 829.879,15.145 829.436,14.546C828.082,13.321 828.19,13.328 826.61,12.27C826.271,11.954 825.932,11.639 825.594,11.323C823.2,9.85 823.007,9.996 819.475,9.716L817.521,9.707C815.387,9.841 815.458,9.793 813.482,10.426C810.485,10.69 810.698,11.222 807.739,11.984C804.961,13.931 805.022,13.953 802.91,16.603C802.862,18.194 802.975,18.078 803.392,19.527C804.243,21.191 804.08,21.209 805.331,22.646C805.74,23.247 806.149,23.848 806.559,24.448C808.454,26.613 808.418,26.558 810.526,28.471C811.129,28.874 811.732,29.277 812.335,29.68C813.162,30.468 815.97,32.563 816.294,32.805C817.157,34.506 817.47,34.063 818.335,34.648C818.616,34.982 818.896,35.317 819.176,35.652C818.996,37.119 818.979,37.046 819.336,38.502C818.988,43.352 820.407,75.219 819.475,82.494C819.143,85.089 797.796,83.984 795.763,83.087C794.334,76.928 794.541,76.944 794.281,66.524C794.103,60.376 794.512,60.383 793.551,56.499C793.476,48.412 793.48,48.516 793.436,40.506C793.612,32.955 793.59,33.045 793.442,25.495C793.475,22.83 793.507,20.166 793.54,17.502C793.811,15.824 794.082,14.146 794.353,12.468L794.804,9.664C796.395,9.088 796.193,8.884 798.604,6.721C802.835,4.044 803.25,5.097 807.539,2.647C808.887,2.36 810.234,2.072 811.582,1.784C828.225,0.025 837.404,1.692 839.61,2.093C840.499,2.059 841.388,2.024 842.277,1.989C846.211,4.678 846.678,3.771 850.457,6.576C852.322,8.392 852.461,8.122 854.394,9.592C855.38,10.407 855.29,10.427 857.33,12.644C858.211,14.285 858.091,14.258 859.263,15.616C859.471,16.534 859.68,17.452 859.889,18.37C861.111,22.86 860.774,22.851 860.398,27.482C858.601,31.196 858.733,31.227 858.56,31.539C857.372,33.265 857.547,33.317 857.433,33.453C855.425,35.441 855.353,35.251 853.388,37.264C850.782,38.643 850.806,38.545 850.593,38.676C848.054,40.241 847.94,39.822 846.506,40.516C845.777,40.8 845.047,41.083 844.318,41.367C843.684,42.735 844.129,42.711 845.221,43.736C845.665,44.306 846.109,44.875 846.553,45.445C847.143,45.851 847.733,46.258 848.324,46.664C848.659,46.999 848.994,47.333 849.329,47.667C849.957,48.345 850.586,49.022 851.215,49.699C851.91,50.609 851.616,50.689 852.323,51.647C852.709,52.755 852.685,52.681 853.323,53.594L853.977,55.282C857.274,61.906 857.131,61.967 857.457,62.52C858.315,64.651 857.979,64.736 859.288,66.619C859.612,66.95 859.936,67.281 860.261,67.613C861.647,69.709 861.583,69.707 863.666,71.006C865.7,71.249 865.634,71.176 867.519,70.55C869.609,69.148 869.497,69.188 871.591,67.696C872.7,68.506 872.67,68.416 873.442,69.511C873.529,70.137 873.999,73.542 872.198,77.311C871.218,77.731 871.318,77.725 870.596,78.59C869.307,79.824 868.959,79.509 868.315,81.167C863.406,82.6 863.718,83.67 858.604,83.941C856.911,84.03 857.134,84.442 855.5,84.999Z" style="fill:rgb(173,33,33);fill-opacity:0.98;"/>
            <path d="M888.693,1.992C890.645,2.009 890.598,2.1 892.531,1.634C898.576,1.455 898.506,1.522 904.579,2.126C905.061,2.193 907.49,2.533 910.499,3.503C915.704,6.236 917.729,6.648 918.399,6.785C918.701,7.045 918.307,7.428 919.418,7.665C919.592,7.703 920.559,7.909 921.421,8.653C922.087,8.973 922.753,9.294 923.419,9.614C926.622,11.594 933.626,16.357 936.376,5.42C936.787,3.784 938.8,4.151 938.842,7.445C938.952,16.119 936.704,18.144 935.892,19.699C935.752,20.03 935.053,21.69 933.508,23.508C933.173,23.84 932.838,24.173 932.503,24.505C927.123,28.646 923.85,25.437 920.595,24.282C919.263,23.013 919.238,23.153 917.621,22.332C913.329,19.093 911.213,18.439 910.591,18.247C909.67,17.501 909.761,17.427 908.598,17.292C907.684,16.593 907.748,16.576 906.572,16.34C905.894,16.03 905.216,15.72 904.538,15.41C898.247,14.084 896.616,9.571 886.389,15.366C885.782,15.765 885.176,16.164 884.569,16.563C884.454,16.696 884.633,16.729 883.377,18.415C883.065,19.101 882.753,19.787 882.441,20.473C878.862,26.838 881.312,37.826 883.516,43.494C883.696,43.957 883.598,43.928 883.691,44.419C884.461,46.04 884.141,46.132 885.338,47.552C886.592,50.305 886.391,50.348 888.322,52.641C888.705,53.266 889.089,53.892 889.473,54.518C889.766,54.884 890.059,55.25 890.352,55.616C890.747,56.234 891.142,56.851 891.536,57.468C891.851,57.819 892.165,58.17 892.479,58.52C894.009,60.042 893.95,59.968 895.541,61.455C896.137,61.871 896.732,62.287 897.328,62.704C897.461,62.826 897.579,62.503 899.304,63.811C899.924,65.416 900.277,64.989 901.456,65.581C902.123,65.918 902.789,66.255 903.456,66.592C908.04,67.562 914.171,74.39 930.624,65.677C932.25,64.81 932.28,64.943 933.597,63.622C935.907,60.761 936.131,60.944 937.609,57.527C938.36,55.619 938.463,55.652 937.925,53.654C938.266,50.946 938.695,49.45 940.795,51.243C940.878,52.237 940.97,52.16 941.469,53.515C941.619,55.156 941.475,55.16 942.305,56.539C943.879,63.18 943.711,63.568 942.259,69.428C941.144,70.821 941.265,70.8 940.447,72.468L940.222,73.319C938.689,73.997 939.011,74.277 938.297,75.258C937.965,75.534 937.944,75.368 937.622,75.635C937.536,75.707 937.622,75.635 936.607,76.604C936.357,76.83 936.373,76.707 933.42,79.361C932.763,79.707 932.106,80.053 931.449,80.4C931.011,80.709 930.862,80.376 925.303,83.08C924.548,83.447 900.553,86.158 891.395,81.742C891.395,81.742 889.72,81.311 889.574,81.274C889.252,80.952 888.93,80.631 888.609,80.31C887.728,79.648 887.785,79.68 886.674,79.31C886.433,79.147 884.81,78.052 883.7,77.222C883.267,76.684 882.834,76.147 882.401,75.609C882.078,75.263 881.756,74.916 881.433,74.569C880.845,74.161 880.257,73.752 879.669,73.343C879.335,73.009 879.001,72.674 878.667,72.339C878.257,71.744 877.846,71.149 877.436,70.554C877.161,70.172 876.886,69.79 876.611,69.408C875.716,67.846 875.848,67.823 874.707,66.379C872.861,64.483 872.913,64.462 869.566,58.469C869.414,58.198 869.537,57.825 869.385,57.554C868.416,55.505 868.628,55.47 867.594,53.477C864.445,43.363 862.106,34.964 868.089,22.317C868.704,20.611 869.487,18.862 869.619,18.566C869.972,17.926 870.326,17.286 870.679,16.646C870.982,16.311 870.997,16.355 874.498,12.499C874.537,12.458 879.207,8.067 879.616,7.682C880.243,7.287 880.87,6.891 881.497,6.496C881.812,6.251 884.677,4.019 885.615,3.68C886.58,3.296 887.544,2.911 888.509,2.526L888.693,1.992Z" style="fill:rgb(173,33,33);fill-opacity:0.98;"/>
            <g transform="matrix(0.215897,0,0,0.215897,943.017185,2.393336)">
                <path d="M7.038,213.52C6.383,200.514 7.032,200.59 6.733,187.512C4.527,91.044 52.308,12.969 176.254,4.342C301.373,-4.367 378.13,110.577 369.687,232.804C362.515,336.633 311.093,372.57 242.65,385.875C117.488,410.206 22.607,321.718 7.038,213.52ZM128.978,77.968C108.753,83.131 101.727,102.726 104.579,129.576C107.577,157.81 121.498,194.066 142.477,229.998C183.405,300.1 232.948,335.505 263.891,305.901C292.015,278.994 276.275,221.229 239.811,155.281C208,97.749 163.89,69.055 128.978,77.968Z" style="fill:rgb(173,33,33);fill-opacity:1;"/>
            </g>
        </g>
    </g>
</svg>
