<?xml version="1.0" encoding="UTF-8" standalone="no"?>
<!DOCTYPE svg PUBLIC "-//W3C//DTD SVG 1.1//EN" "http://www.w3.org/Graphics/SVG/1.1/DTD/svg11.dtd">
<svg width="100%" height="100%" viewBox="0 0 1476 1298" version="1.1" xmlns="http://www.w3.org/2000/svg" xmlns:xlink="http://www.w3.org/1999/xlink" xml:space="preserve" xmlns:serif="http://www.serif.com/" style="fill-rule:evenodd;clip-rule:evenodd;stroke-linejoin:round;stroke-miterlimit:2;">
    <g transform="matrix(1,0,0,1,-0.000869,0.000146)">
        <g transform="matrix(0.031878,0,0,0.031878,0.00112,0)">
            <path fill="currentColor" d="M23148.12,3008.535C29579.82,-2039.475 39660.37,-722.3 44295.77,6864.47C45834.87,9383.49 46412.92,12312.22 46277.07,15219.92C46041.43,20263.5 43864.54,24672.37 40666.46,28476.7C36360.69,33598.7 30100.78,37624.75 23285.13,40628.82C23262.72,40638.71 23189.78,40671.59 23148.12,40689.12C23100.62,40667.99 23021.52,40633.61 23011.99,40629.43C16161.04,37625.3 9935.8,33599.61 5629.78,28476.71C2431.92,24672.2 254.81,20263.52 19.17,15219.93C-116.67,12312.23 461.39,9383.51 2000.47,6864.48C6635.87,-722.29 16716.43,-2039.475 23148.12,3008.535ZM23204.92,7530.98C23200.03,7536.25 23148.18,7592.65 23148.14,7592.61L23091.61,7531.25C20146.91,4342.23 16707.43,2891.95 12724.97,3453.77C8614.63,4033.65 5114.99,6972.18 3870.8,10932.78C2913.42,13980.36 3310.84,17393.61 4592.89,20506.13C6586.88,25347.1 12479.21,32228.22 23148.13,37038.98C33817.06,32228.22 39709.39,25347.1 41703.37,20506.13C42985.42,17393.61 43382.85,13980.36 42425.46,10932.78C41181.26,6972.18 37681.63,4033.65 33571.29,3453.77C29588.95,2891.97 26149.55,4342.14 23204.92,7530.98ZM36786.1,21630.185C36244.66,22899.445 34893.37,24076.47 33677.1,24686.3C32105.49,25474.29 30257.52,25560.54 28560.36,25189.48C25079.61,24428.45 23459.23,21512.52 23398.81,18136.94C23339.7,14834.66 25025.65,11772.61 28354.31,10881.71C31482.49,10044.47 35172.88,11066.21 36747.63,14070.52L33550.64,15709.42C33184.23,14856.29 32498.62,13907.25 30889.49,13824.06C28371.28,13693.84 27634.16,16128.91 27721.34,18237.3C27785.15,19780.88 28282.1,21621.01 29961.01,22081.06C32099.88,22667.14 32840.36,21662.8 33858.09,20178.81L36786.1,21630.185ZM22983.64,21630.185C22442.2,22899.445 21090.91,24076.47 19874.64,24686.3C18303.03,25474.29 16455.06,25560.54 14757.9,25189.48C11277.15,24428.45 9656.78,21512.52 9596.35,18136.94C9537.24,14834.66 11223.19,11772.61 14551.85,10881.71C17680.04,10044.47 21370.42,11066.21 22945.17,14070.52L19748.18,15709.42C19381.78,14856.29 18696.16,13907.25 17087.03,13824.06C14568.82,13693.84 13831.71,16128.91 13918.88,18237.3C13982.7,19780.88 14479.64,21621.01 16158.55,22081.06C18297.42,22667.14 19037.9,21662.8 20055.63,20178.81L22983.64,21630.185Z"/>
        </g>
    </g>
</svg>
