<?xml version="1.0" encoding="UTF-8" standalone="no"?>
<!DOCTYPE svg PUBLIC "-//W3C//DTD SVG 1.1//EN" "http://www.w3.org/Graphics/SVG/1.1/DTD/svg11.dtd">
<svg width="100%" height="100%" viewBox="0 0 713 713" version="1.1" xmlns="http://www.w3.org/2000/svg" xmlns:xlink="http://www.w3.org/1999/xlink" xml:space="preserve" xmlns:serif="http://www.serif.com/" style="fill-rule:evenodd;clip-rule:evenodd;stroke-linejoin:round;stroke-miterlimit:2;">
    <g transform="matrix(1,0,0,1,-42.623268,-47.623268)">
        <g transform="matrix(61.993772,0,0,61.993772,-375.834848,-339.837962)">
            <path fill="currentColor" d="M8.03,6.47L12.5,10.939L16.97,6.47C17.263,6.177 17.737,6.177 18.03,6.47C18.323,6.763 18.323,7.237 18.03,7.53L13.561,12L18.03,16.47C18.323,16.763 18.323,17.237 18.03,17.53C17.737,17.823 17.263,17.823 16.97,17.53L12.5,13.061L8.03,17.53C7.737,17.823 7.263,17.823 6.97,17.53C6.677,17.237 6.677,16.763 6.97,16.47L11.439,12L6.97,7.53C6.677,7.237 6.677,6.763 6.97,6.47C7.263,6.177 7.737,6.177 8.03,6.47Z"/>
        </g>
    </g>
</svg>
