<?xml version="1.0" encoding="UTF-8" standalone="no"?>
    <!DOCTYPE svg PUBLIC "-//W3C//DTD SVG 1.1//EN" "http://www.w3.org/Graphics/SVG/1.1/DTD/svg11.dtd">
        <svg width="100%" height="100%" viewBox="0 0 192 188" version="1.1" xmlns="http://www.w3.org/2000/svg" xmlns:xlink="http://www.w3.org/1999/xlink" xml:space="preserve" xmlns:serif="http://www.serif.com/" style="fill-rule:evenodd;clip-rule:evenodd;stroke-linejoin:round;stroke-miterlimit:2;">
            <g id="github-mark.png">
            <path d="M5.074,87.9c0.146,-1.186 0.292,-2.373 0.439,-3.559c0.74,-4.65 0.716,-7.93 4.674,-19.294c0.582,-1.465 1.163,-2.93 1.745,-4.395c1.588,-3.514 10.92,-24.172 29.797,-37.886c0.284,-0.207 1.983,-1.443 3.587,-2.536c14.168,-10.107 32.979,-13.533 36.024,-14.088c1.181,-0.194 2.362,-0.387 3.543,-0.581l3.498,-0.214c7.424,-0.475 7.386,-0.499 15.798,0.049l0.881,0.044c2.048,0.277 4.097,0.554 6.145,0.831l4.402,0.808c11.155,2.662 14.603,4.625 15.871,5.128c0.346,0.153 2.534,1.117 4.317,1.929c5.449,2.898 5.547,2.621 10.572,6.098c1.601,1.096 3.855,2.664 4.19,2.897c1.848,1.419 12.054,9.258 20.195,20.992c2.509,3.957 2.523,3.938 2.737,4.284c3.167,5.107 5.832,11.231 6.271,12.239c0.494,1.201 0.988,2.402 1.483,3.603c3.797,10.909 3.676,12.083 4.84,19.222c0.154,1.186 0.309,2.371 0.463,3.557c0.373,8.381 0.339,8.324 0.1,16.668c-0.17,1.477 -0.34,2.954 -0.51,4.432c-1.639,9.86 -1.815,9.757 -4.504,18.464c-0.672,1.724 -1.345,3.448 -2.017,5.172c-4.846,11.979 -13.451,22.933 -20.316,29.68c-6.348,5.574 -6.415,5.63 -6.984,6.107c-1.845,1.41 -13.31,10.169 -25.356,14.135c-11.018,3.627 -8.047,-4.648 -8.348,-29.571c-0.135,-11.132 -5.732,-14.264 -4.858,-15.95c0.254,-0.491 0.371,-0.289 2.801,-0.589c1.369,-0.169 7.863,-1.216 14.098,-3.591c1.192,-0.552 2.384,-1.105 3.576,-1.657c3.612,-2.162 3.675,-1.994 6.923,-4.63c1.904,-1.652 1.883,-1.589 3.559,-3.482c6.554,-8.497 7.408,-14.694 8.142,-17.567c0.251,-1.479 0.503,-2.958 0.754,-4.438l0.168,-2.633c0.289,-4.457 0.395,-4.416 0.139,-8.846c-0.318,-3.031 -0.127,-10.881 -8.001,-20.486c-0.993,-1.946 -0.711,-1.989 -0.284,-4.116l0.169,-0.844c0.211,-1.191 0.422,-2.383 0.632,-3.574c0.028,-1.761 0.057,-3.522 0.085,-5.283c-0.19,-2.289 -0.142,-2.225 -0.574,-4.465c-0.424,-2.24 -0.347,-2.199 -1.016,-4.405c-0.805,-2.656 -2.542,-6.093 -17.984,1.563c-2.318,1.241 -2.238,1.231 -4.452,2.562c-6.306,3.978 -6.791,1.261 -14.727,0.031c-4.444,-0.53 -4.402,-0.455 -8.824,-0.818c-1.768,0.004 -3.537,0.008 -5.305,0.011c-3.983,0.287 -3.917,0.193 -7.95,0.694c-10.56,1.647 -10.486,2.012 -11.407,2.131c-2.202,0.284 -21.893,-13.714 -26.411,-7.868c-1.118,3.524 -1.028,3.474 -1.888,7.025l-0.159,1.757c-0.274,2.241 -0.207,2.203 -0.135,4.43c0.239,4.035 0.009,3.998 1.09,7.979c0.303,2.759 -0.27,2.637 -1.895,4.953c-4.887,6.594 -5.751,12.4 -6.042,13.413c-0.57,3.128 -0.521,3.055 -0.774,6.208l-0.006,4.414c0.19,3.16 0.149,3.081 0.6,6.199l0.151,1.758c0.25,1.185 0.5,2.369 0.75,3.554c3.232,12.448 7.581,19.435 20.485,25.816c3.059,1.399 3.051,1.253 6.323,2.266c10.277,2.495 13.536,1.526 11.427,4.395c-3.229,4.392 -3.376,7.357 -3.774,8.741c-0.777,2.699 -4.255,2.981 -5.095,3.27c-1.735,0.259 -3.469,0.517 -5.204,0.776c-3.643,-0.378 -3.578,-0.379 -7.047,-1.309c-5.063,-2.395 -6.103,-3.335 -10.059,-9.445c-7.61,-11.755 -23.179,-9.791 -14.763,-3.524c8.723,6.495 7.15,7.86 12.506,17.344c1.439,2.106 1.378,2.078 3.355,3.73c16.12,10.376 25.539,-0.67 25.545,5.949c0.014,15.292 1.489,17.35 -4.276,18.949c-2.737,-0.422 -2.663,-0.474 -5.276,-1.301c-6.836,-2.747 -17.431,-6.681 -32.201,-20.651c-0.428,-0.482 -0.466,-0.436 -5.414,-5.975c-3.946,-4.445 -9.423,-13.04 -12.148,-18.502c-0.633,-1.434 -1.265,-2.868 -1.898,-4.302c-6.158,-16.268 -7.892,-23.502 -6.966,-43.882Z"/>
            </g>
        </svg>