<?xml version="1.0" encoding="UTF-8" standalone="no"?>
<!DOCTYPE svg PUBLIC "-//W3C//DTD SVG 1.1//EN" "http://www.w3.org/Graphics/SVG/1.1/DTD/svg11.dtd">
<svg width="100%" height="100%" viewBox="0 0 500 500" version="1.1" xmlns="http://www.w3.org/2000/svg" xmlns:xlink="http://www.w3.org/1999/xlink" xml:space="preserve" xmlns:serif="http://www.serif.com/" style="fill-rule:evenodd;clip-rule:evenodd;stroke-linejoin:round;stroke-miterlimit:2;">
    <g transform="matrix(1,0,0,1,28,28)">
        <path d="M393.165,423.015C356.742,444.187 354.759,441.851 246.5,441.851C95.626,441.851 95.029,442.88 74.656,435.087C31.014,418.393 2.714,379.527 2.151,330.502C1.231,250.515 2.033,131.78 2.149,114.5C2.592,48.862 52.022,2.857 113.498,2.151C193.485,1.231 312.22,2.033 329.5,2.149C394.883,2.59 441.14,51.756 441.849,113.498C442.417,162.925 441.91,312.22 441.851,329.5C441.647,389.482 401.74,416.532 393.165,423.015ZM387.029,380.078C395.616,368.817 405.155,356.722 405.155,328.5C405.159,129.695 405.28,129.786 405.145,112.507C404.917,83.354 385.268,38.823 327.5,38.822C112.608,38.819 112.609,38.845 111.514,38.856C86.586,39.088 38.846,56.449 38.845,116.5C38.841,339.773 38.632,339.885 40.635,347.465C41.481,350.667 49.53,393.267 98.44,403.813C105.614,405.36 105.67,405.178 283.5,405.178C339.526,405.178 355.477,407.378 377.534,388.874C380.546,386.348 383.671,383.435 387.029,380.078Z" style="fill-opacity:1;"/>
    </g>
    <g transform="matrix(1,0,0,1,28,28)">
        <path d="M304.002,148.937C368.511,223.054 314.044,340.274 209.559,331.111C144.412,325.398 90.361,252.014 120.695,179.576C148.071,114.202 239.532,81.758 304.002,148.937ZM281.97,180.151C249.05,135.29 201.587,150.525 192.302,155.097C124.47,188.491 144.498,271.629 194.685,290.022C264.247,315.515 322.384,240.251 281.97,180.151Z" style="fill-opacity:1;"/>
    </g>
    <g transform="matrix(1,0,0,1,28,28)">
        <path d="M318.924,119.164C299.796,87.241 337.603,64.149 358.321,81.711C387.453,106.406 347.723,151.888 318.924,119.164Z" style="fill-opacity:1;"/>
    </g>
</svg>
