<?xml version="1.0" encoding="UTF-8" standalone="no"?><!DOCTYPE svg PUBLIC "-//W3C//DTD SVG 1.1//EN" "http://www.w3.org/Graphics/SVG/1.1/DTD/svg11.dtd"><svg width="100%" height="100%" viewBox="0 0 6667 6667" version="1.1" xmlns="http://www.w3.org/2000/svg" xmlns:xlink="http://www.w3.org/1999/xlink" xml:space="preserve" xmlns:serif="http://www.serif.com/" style="fill-rule:evenodd;clip-rule:evenodd;stroke-linecap:round;stroke-linejoin:round;stroke-miterlimit:1.5;"><path d="M5.4,3007.1c0.3,-1318.8 2.9,-1332.8 19.7,-1387.3c36,-117.3 81.9,-37.2 185,36.1c25.8,18.4 2111.7,1474 2120,1490.5c57.6,114.4 -88,304.9 444.9,706c27.1,20.4 25.7,21.6 327.6,267.4c82.9,69.3 203.8,215.2 359.5,89.4c667.6,-539 703.1,-591.6 747.1,-656.8c173.9,-257.9 64.2,-363.5 175.9,-440.9c136,-94.3 2209.5,-1550.9 2221.9,-1551.4c67.4,-2.3 59,42.9 59,2344.3c0,1133.2 13.1,1146.4 -81.3,1272.9c-186,249.1 -289.3,215.2 -1273.8,215.2c-4856.1,0 -4856.5,2.1 -4934.4,-17c-450.7,-110.5 -371.1,-632.6 -371.1,-669.2c0,-727.6 -0.1,-1279.6 -0.1,-1699.3Zm3726.8,569.2c-20.3,16.3 -36.7,29.6 -83.1,68.5c-291.6,238.6 -288.8,250.9 -321,244.5c-0.5,-0.1 -512.6,-399.4 -570.9,-479.4c-255.4,-350.4 109.8,-647.2 350.8,-424.6c72.4,66.9 195.9,246.1 370.1,82c1.4,-1.3 200.3,-262.9 423.4,-107.9c14,9.7 271.6,229.7 -84.7,547.1c-13.1,11.7 -27,23.4 -41.8,35.4c-19.2,15.5 -31.6,25.4 -42.8,34.3Zm2600.1,-2265.7c7.4,10.3 8.5,24.5 -3.3,44.1l-75.3,52.7c-2003.9,1402.9 -2007.2,1420.2 -2031.2,1406.3c-28,-16.2 -162.5,-244.7 -534.9,-223.9c-152.8,8.5 -308.4,121.3 -331.5,138c-59.6,43.2 -86.4,-117.1 -383.6,-136.8c-29.6,-2 -61.8,-2.5 -97,-1.4c-218.7,7.2 -374.5,170 -398.6,195.2c-50.3,58.2 -66.9,16.4 -309.1,-151.2c-148.9,-103.1 -1760.7,-1219 -1853.3,-1297.9c-88,-75 392.3,-62.5 1046,-62.5c3511.2,0 4473.4,-0.7 4761.9,3.3c64,4.1 134,13.4 209.9,34.1Z" style="stroke:#020001;stroke-width:20.5px;"/></svg>