<?xml version="1.0" encoding="UTF-8" standalone="no"?><!DOCTYPE svg PUBLIC "-//W3C//DTD SVG 1.1//EN" "http://www.w3.org/Graphics/SVG/1.1/DTD/svg11.dtd"><svg width="100%" height="100%" viewBox="0 0 2134 2134" version="1.1" xmlns="http://www.w3.org/2000/svg" xmlns:xlink="http://www.w3.org/1999/xlink" xml:space="preserve" xmlns:serif="http://www.serif.com/" style="fill-rule:evenodd;clip-rule:evenodd;stroke-linejoin:round;stroke-miterlimit:2;"><g id="Background"></g><path d="M1066.725,36.063c560.079,0 1014.792,454.005 1014.792,1013.213c0,559.207 -454.713,1013.213 -1014.792,1013.213c-560.079,0 -1014.792,-454.005 -1014.792,-1013.213c0,-559.207 454.713,-1013.213 1014.792,-1013.213Zm-367.452,1141.207l0.034,-29.35c0.356,-342.137 -1.179,-346.208 -10.699,-355.464c-15.246,-14.823 -264.462,-1.692 -271.564,1.587c-12.368,5.71 -7.886,799.025 -4.52,846.324c1.562,21.951 48.202,17.844 183.9,16.461c38.225,-0.213 88.223,2.432 96.971,-7.311c4.624,-5.15 5.132,-26.173 5.306,-129.5c0.235,-139.719 0.458,-252.164 0.572,-342.748Zm-7.776,-745.412c-4.487,-4.647 -8.063,-10.118 -12.549,-14.765c-108.756,-112.644 -330.493,-15.184 -278.447,143.291c67.8,206.441 413.709,86.023 290.996,-128.525Zm959.839,436.922c-129.114,-142.772 -366.509,-133.682 -478.396,7.685c-46.075,58.215 -12.202,-63.188 -34.604,-83.725c-13.508,-12.383 -259.929,-3.832 -264.158,-2.746c-14.873,3.82 -15.154,52.775 -15.181,57.536c-0.366,63.85 -4.38,763.545 5.395,798.121c6.016,21.281 262.937,9.023 270.829,6.346c26.861,-9.112 0.811,-348.109 19.495,-521.367c10.407,-96.505 142.337,-194.53 247.717,-96.587c90.942,84.524 33.352,534.513 51.029,606.856c8.019,32.817 268.984,11.862 274.99,9.895c11.462,-3.754 11.644,-47.685 11.662,-51.944c2.231,-538.635 3.513,-620.868 -88.778,-730.07Z"/></svg>