<?xml version="1.0" encoding="UTF-8" standalone="no"?><!DOCTYPE svg PUBLIC "-//W3C//DTD SVG 1.1//EN" "http://www.w3.org/Graphics/SVG/1.1/DTD/svg11.dtd"><svg width="100%" height="100%" viewBox="0 0 8892 8892" version="1.1" xmlns="http://www.w3.org/2000/svg" xmlns:xlink="http://www.w3.org/1999/xlink" xml:space="preserve" xmlns:serif="http://www.serif.com/" style="fill-rule:evenodd;clip-rule:evenodd;stroke-linejoin:round;stroke-miterlimit:2;"><path d="M8301.9,3446.8c608.8,752.2 600.3,1318.7 585.6,5029.2c-0.1,29.3 -1.3,332 -76.9,357.8c-39.6,13.5 -1761,157.9 -1813.8,-68.2c-116.6,-498.3 263.3,-3598.1 -336.6,-4180.4c-695.1,-674.7 -1565.3,0.6 -1633.9,665.4c-123.2,1193.5 48.6,3528.7 -128.6,3591.5c-52.1,18.4 -1746.7,102.9 -1786.4,-43.7c-64.5,-238.2 -38,-5058.1 -35.6,-5498c0.2,-32.8 2,-370 100.1,-396.3c27.9,-7.5 1653.3,-66.4 1742.4,18.9c147.8,141.5 -75.7,977.8 228.3,576.8c738,-973.8 2303.9,-1036.4 3155.5,-52.9l-0,0Zm-6331.1,-3009.8c809.4,1477.9 -1472.2,2307.5 -1919.4,885.4c-343.3,-1091.7 1119.3,-1763 1836.6,-987.1c29.6,32 53.2,69.7 82.8,101.7l-0,0Zm51.3,5134.9c-0.8,624 -2.2,1398.6 -3.8,2361.1c-1.1,711.8 -4.5,856.6 -35,892.1c-57.7,67.1 -387.5,48.9 -639.6,50.4c-895.1,9.5 -1202.7,37.8 -1213,-113.4c-22.2,-325.8 -51.8,-5790.7 29.8,-5830c46.8,-22.6 1690.7,-113 1791.3,-10.9c62.8,63.8 72.9,91.8 70.6,2448.7l-0.2,202.2l-0,-0Z"/></svg>