<?xml version="1.0" encoding="UTF-8" standalone="no"?>
<!DOCTYPE svg PUBLIC "-//W3C//DTD SVG 1.1//EN" "http://www.w3.org/Graphics/SVG/1.1/DTD/svg11.dtd">
<svg width="100%" height="100%" viewBox="0 0 659 158" version="1.1" xmlns="http://www.w3.org/2000/svg" xmlns:xlink="http://www.w3.org/1999/xlink" xml:space="preserve" xmlns:serif="http://www.serif.com/" style="fill-rule:evenodd;clip-rule:evenodd;stroke-linejoin:round;stroke-miterlimit:2;">
    <g transform="matrix(1,0,0,1,-2.586294,-54.097884)">
        <g transform="matrix(16.279469,0,0,0.918605,-9856.156883,35.203301)">
            <path fill="currentColor" d="M646.061,40.802C646.061,51.969 645.549,61.036 644.919,61.036L606.735,61.036C606.105,61.036 605.594,51.969 605.594,40.802C605.594,29.635 606.105,20.569 606.735,20.569L644.919,20.569C645.549,20.569 646.061,29.635 646.061,40.802Z"/>
        </g>
        <g transform="matrix(16.279469,0,0,0.918605,-9856.156883,155.203301)">
            <path fill="currentColor" d="M646.061,40.802C646.061,51.969 645.549,61.036 644.919,61.036L606.735,61.036C606.105,61.036 605.594,51.969 605.594,40.802C605.594,29.635 606.105,20.569 606.735,20.569L644.919,20.569C645.549,20.569 646.061,29.635 646.061,40.802Z"/>
        </g>
    </g>
</svg>
