<svg width="100%" height="100%" viewBox="0 0 2134 2134"
     version="1.1"
     xmlns="http://www.w3.org/2000/svg"
     xmlns:xlink="http://www.w3.org/1999/xlink"
     xml:space="preserve"
     xmlns:serif="http://www.serif.com/"
     fill="currentColor"
     style="fill-rule:evenodd;
     clip-rule:evenodd;
     stroke-linejoin:round;
     stroke-miterlimit:2;">
     <path d="M972.917,0l187.5,0c1.921,0.662 2.461,3.575 4.382,4.237c0.183,0.063 28.418,-0.378 33.425,1.243c14.385,4.659 15.161,-0.712 29.167,4.167c13.633,4.749 15.236,2.359 20.351,2.847c6.552,0.626 5.59,3.308 12.441,3.842c12.876,1.004 12.341,2.231 24.982,4.174c19.958,3.068 77.897,18.067 95.769,24.012c179.97,59.873 224.894,101.08 279.054,133.263c23.687,14.075 25.181,18.452 29.166,20.831c24.086,14.377 44.407,34.16 50,37.5c18.071,10.792 25.554,24.521 33.333,29.167c23.31,13.921 125.658,125.789 134.464,140.536c3.877,6.493 19.539,26.392 21.305,28.636c15.834,20.119 13.407,21.644 29.167,41.667c9.776,12.421 20.294,32.647 20.833,33.333c8.719,11.088 32.644,57.457 33.333,58.333c17.07,21.709 101.924,209.712 113.407,359.119c0.128,1.662 3.594,9.722 3.842,12.441c2.472,27.034 -0.139,26.885 0.257,29.186c0.345,2.001 3.888,2.38 4.233,4.382l0,187.5c-1.06,3.078 -3.172,1.3 -4.233,4.382c-0.212,0.614 -0.006,0.602 -0.072,8.119c-0.062,7.022 0.14,14.052 -0.185,21.067c-0.103,2.223 -3.719,10.841 -3.842,12.441c-0.284,3.692 -2.928,38.093 -5.477,45.965c-2.136,6.594 -6.544,30.561 -7.036,33.233c-0.431,2.342 -5.278,28.692 -5.464,29.267c-2.342,7.229 -16.02,60.582 -20.829,75.01c-47.446,142.35 -94.525,210.821 -97.309,215.923c-58.323,106.874 -241.668,361.263 -586.481,476.201c-82.199,27.4 -176.448,43.139 -192.013,43.131c-9.391,-0.005 -8.611,2.972 -16.403,3.684c-27.034,2.472 -26.885,-0.139 -29.186,0.257c-2.001,0.345 -2.38,3.888 -4.382,4.233l-187.5,0c-2.001,-0.345 -2.38,-3.888 -4.382,-4.233c-2.627,-0.453 -18.56,2.181 -32.812,-2.781c-2.065,-0.719 -39.758,-2.318 -58.333,-8.333c-8.436,-2.732 -8.817,0.319 -17.28,-2.629c-14.024,-4.885 -27.227,-3.53 -54.177,-12.495c-9.549,-3.177 -133.318,-27.534 -283.447,-116.738c-33.453,-19.877 -33.644,-30.501 -70.72,-18.143c-169.96,56.649 -355.311,112.762 -374.87,121.106c-17.064,7.279 -5.886,-11.979 0.96,-32.516c2.47,-7.409 3.285,-7.041 31.787,-92.301c87.201,-260.852 92.721,-270.448 87.09,-277.897c-10.428,-13.796 -95.134,-129.756 -149.585,-296.478c-8.241,-25.232 -5.971,-25.584 -16.667,-58.333c-2.11,-6.46 -8.663,-46.489 -12.5,-58.334c-1.993,-6.151 -10.931,-74.324 -12.5,-79.167c-2.256,-6.965 -0.984,-6.953 -1.172,-25.285c-0.071,-6.895 -3.843,-7.452 -4.309,-8.356l-0,-187.5c0.345,-2.002 3.892,-2.38 4.237,-4.382c0.397,-2.301 -2.214,-2.154 0.257,-29.186c0.249,-2.719 3.714,-10.779 3.842,-12.441c11.483,-149.407 96.337,-337.411 113.407,-359.119c0.689,-0.877 24.615,-47.246 33.333,-58.333c0.54,-0.686 11.057,-20.912 20.833,-33.333c15.759,-20.023 13.332,-21.548 29.167,-41.667c1.766,-2.244 17.428,-22.143 21.305,-28.636c11.078,-18.551 116.922,-131.737 138.631,-144.703c6.735,-4.022 11.954,-14.72 29.167,-25c5.593,-3.34 25.914,-23.123 50,-37.5c3.985,-2.379 5.479,-6.756 29.166,-20.831c54.16,-32.182 99.084,-73.389 279.054,-133.263c17.872,-5.946 75.811,-20.945 95.769,-24.012c12.641,-1.943 12.106,-3.17 24.982,-4.174c9.497,-0.74 8.83,-4 20.629,-3.991c2.67,0.002 2.132,-1.627 33.128,-4.009c1.6,-0.123 10.217,-3.739 12.441,-3.842c7.015,-0.325 14.045,-0.123 21.067,-0.185c7.517,-0.066 7.505,0.139 8.119,-0.072c3.083,-1.063 1.302,-3.176 4.382,-4.237l-258.509,491.663c-72.93,0.325 -72.944,-0.514 -79.226,0.333c-8.642,1.165 -7.995,2.824 -16.685,4.16c-22.111,3.4 -68.33,32.436 -79.614,51.331c-8.439,14.13 -18.397,20.921 -20.833,25c-9.972,16.697 -11.699,15.207 -12.499,16.669c-20.758,37.956 -23.306,36.474 -33.407,66.777c-37.438,112.313 -26.549,175.154 8.333,279.8c16.844,50.531 77.376,148.07 85.276,157.014c8.852,10.023 64.893,89.659 66.667,91.667c2.042,2.312 20.911,23.677 24.531,29.738c8.436,14.126 18.398,20.921 20.833,25c9.135,15.296 74.524,82.536 75,83.333c1.21,2.027 9.466,15.851 19.702,21.964c12.719,7.596 11.694,8.642 22.258,19.139c28.23,28.052 29.423,26.515 58.342,53.991c0.95,0.902 9.457,5.549 10.495,6.504c112.666,103.698 293.117,173.471 371.519,199.604c28.39,9.463 65.15,18.943 70.833,20.834c24.459,8.136 25.495,5.399 29.79,6.791c24.663,7.99 46.461,5.95 57.72,9.871c17.542,6.109 85.601,-6.153 92.28,-8.334c63.289,-20.664 62.801,-21.577 120.096,-55.638c54.616,-32.468 82.26,-92.415 85.864,-112.004c5.097,-27.704 8.017,-26.731 8.32,-29.136c8.555,-67.911 23.549,-92.022 -23.351,-115.646c-252.074,-126.97 -263.607,-126.098 -274.876,-122.446c-21.501,6.968 -25.489,10.865 -48.524,35.105c-9.525,10.023 -5.604,12.54 -14.838,22.996c-8.243,9.333 -36.83,49.271 -37.5,50c-26.881,29.206 -22.632,35.647 -56.858,47.604c-44.466,15.535 -210.625,-89.369 -220.139,-97.771c-21.162,-18.69 -29.931,-21.869 -33.333,-25c-18.332,-16.873 -19.278,-15.205 -20.833,-16.667c-21.886,-20.565 -23.113,-19.04 -25,-20.833c-59.399,-56.446 -68.838,-75.448 -95.667,-104c-0.921,-0.98 -5.547,-9.455 -6.504,-10.495c-24.049,-26.128 -19.077,-29.692 -33.333,-45.834c-21.229,-24.036 -41.784,-67.261 -42.586,-72.011c-8.099,-47.979 58.07,-77.83 93.053,-141.919c24.121,-44.19 7.68,-48.657 -29.225,-140.92c-49.584,-123.959 -62.885,-150.562 -69.229,-163.25c-15.045,-30.09 -15.223,-32.277 -46.852,-43.323l258.509,-491.663Z"/></svg>